<?xml version="1.0" encoding="UTF-8" standalone="no"?>
<!DOCTYPE svg PUBLIC "-//W3C//DTD SVG 1.1//EN"
 "http://www.w3.org/Graphics/SVG/1.1/DTD/svg11.dtd">
<!-- Generated by graphviz version 15.0.0 (20260523.1842)
 -->
<!-- Title: G Pages: 1 -->
<svg width="1643pt" height="487pt"
 viewBox="0.00 0.00 1643.00 487.00" xmlns="http://www.w3.org/2000/svg" xmlns:xlink="http://www.w3.org/1999/xlink">
<g id="graph0" class="graph" transform="scale(1 1) rotate(0) translate(28.8 458.2)">
<title>G</title>
<polygon fill="white" stroke="none" points="-28.8,28.8 -28.8,-458.2 1614.55,-458.2 1614.55,28.8 -28.8,28.8"/>
<text xml:space="preserve" text-anchor="middle" x="792.87" y="-413.05" font-family="Helvetica,Arial,sans-serif" font-size="13.00">Aluminium, production mix, at plant [RER]</text>
<text xml:space="preserve" text-anchor="middle" x="792.87" y="-399.55" font-family="Helvetica,Arial,sans-serif" font-size="13.00">climate change (global warming potential (GWP100)) &#160;| &#160;Total: 4.8856 kg CO2&#45;Eq</text>
<!-- n_1 -->
<g id="node1" class="node">
<title>n_1</title>
<path fill="#7b4ea6" stroke="black" d="M1573.75,-222.4C1573.75,-222.4 1405.9,-222.4 1405.9,-222.4 1399.9,-222.4 1393.9,-216.4 1393.9,-210.4 1393.9,-210.4 1393.9,-184 1393.9,-184 1393.9,-178 1399.9,-172 1405.9,-172 1405.9,-172 1573.75,-172 1573.75,-172 1579.75,-172 1585.75,-178 1585.75,-184 1585.75,-184 1585.75,-210.4 1585.75,-210.4 1585.75,-216.4 1579.75,-222.4 1573.75,-222.4"/>
<text xml:space="preserve" text-anchor="start" x="1449.7" y="-203.25" font-family="Helvetica,Arial,sans-serif" font-weight="bold" font-size="11.00" fill="white">Functional Unit</text>
<text xml:space="preserve" text-anchor="start" x="1404.7" y="-193.2" font-family="Helvetica,Arial,sans-serif" font-size="10.00" fill="white">1 × Aluminium, production mix, at plant</text>
<text xml:space="preserve" text-anchor="start" x="1451.2" y="-183.2" font-family="Helvetica,Arial,sans-serif" font-weight="bold" font-size="10.00" fill="white">4.886 kg CO2&#45;Eq</text>
</g>
<!-- n0 -->
<g id="node2" class="node">
<title>n0</title>
<path fill="#3a7ebf" stroke="black" d="M1318.65,-222.4C1318.65,-222.4 1126.8,-222.4 1126.8,-222.4 1120.8,-222.4 1114.8,-216.4 1114.8,-210.4 1114.8,-210.4 1114.8,-184 1114.8,-184 1114.8,-178 1120.8,-172 1126.8,-172 1126.8,-172 1318.65,-172 1318.65,-172 1324.65,-172 1330.65,-178 1330.65,-184 1330.65,-184 1330.65,-210.4 1330.65,-210.4 1330.65,-216.4 1324.65,-222.4 1318.65,-222.4"/>
<text xml:space="preserve" text-anchor="start" x="1125.6" y="-202.75" font-family="Helvetica,Arial,sans-serif" font-weight="bold" font-size="11.00" fill="white">Aluminium, production mix, at\nplant</text>
<text xml:space="preserve" text-anchor="start" x="1210.72" y="-193.65" font-family="Helvetica,Arial,sans-serif" font-size="9.00" fill="#888888">[RER]</text>
<text xml:space="preserve" text-anchor="start" x="1163.85" y="-183.7" font-family="Helvetica,Arial,sans-serif" font-size="10.00" fill="white">4.886 kg CO2&#45;Eq (100.0%)</text>
</g>
<!-- n0&#45;&gt;n_1 -->
<g id="edge1" class="edge">
<title>n0&#45;&gt;n_1</title>
<path fill="none" stroke="#555555" d="M1330.79,-197.2C1348.86,-197.2 1367.58,-197.2 1385.55,-197.2"/>
<polygon fill="#555555" stroke="#555555" points="1385.24,-199.65 1392.24,-197.2 1385.24,-194.75 1385.24,-199.65"/>
<text xml:space="preserve" text-anchor="middle" x="1362.27" y="-198.95" font-family="Helvetica,Arial,sans-serif" font-size="10.00">1</text>
</g>
<!-- n1 -->
<g id="node3" class="node">
<title>n1</title>
<path fill="#f0f4fa" stroke="black" d="M968.15,-308.4C968.15,-308.4 819.35,-308.4 819.35,-308.4 813.35,-308.4 807.35,-302.4 807.35,-296.4 807.35,-296.4 807.35,-270 807.35,-270 807.35,-264 813.35,-258 819.35,-258 819.35,-258 968.15,-258 968.15,-258 974.15,-258 980.15,-264 980.15,-270 980.15,-270 980.15,-296.4 980.15,-296.4 980.15,-302.4 974.15,-308.4 968.15,-308.4"/>
<text xml:space="preserve" text-anchor="start" x="819.5" y="-288.75" font-family="Helvetica,Arial,sans-serif" font-weight="bold" font-size="11.00" fill="#333333">Aluminium, primary, at plant</text>
<text xml:space="preserve" text-anchor="start" x="881.75" y="-279.65" font-family="Helvetica,Arial,sans-serif" font-size="9.00" fill="#888888">[RER]</text>
<text xml:space="preserve" text-anchor="start" x="837.5" y="-269.7" font-family="Helvetica,Arial,sans-serif" font-size="10.00" fill="#333333">4.652 kg CO2&#45;Eq (95.2%)</text>
</g>
<!-- n1&#45;&gt;n0 -->
<g id="edge2" class="edge">
<title>n1&#45;&gt;n0</title>
<path fill="none" stroke="#555555" d="M980.23,-260.72C1021.74,-249.8 1072,-236.58 1115.9,-225.03"/>
<polygon fill="#555555" stroke="#555555" points="1116.41,-227.43 1122.56,-223.28 1115.17,-222.69 1116.41,-227.43"/>
<text xml:space="preserve" text-anchor="middle" x="1073.8" y="-239.37" font-family="Helvetica,Arial,sans-serif" font-size="10.00">0.512</text>
</g>
<!-- n2 -->
<g id="node4" class="node">
<title>n2</title>
<path fill="#f0f4fa" stroke="black" d="M1020.8,-222.4C1020.8,-222.4 766.7,-222.4 766.7,-222.4 760.7,-222.4 754.7,-216.4 754.7,-210.4 754.7,-210.4 754.7,-184 754.7,-184 754.7,-178 760.7,-172 766.7,-172 766.7,-172 1020.8,-172 1020.8,-172 1026.8,-172 1032.8,-178 1032.8,-184 1032.8,-184 1032.8,-210.4 1032.8,-210.4 1032.8,-216.4 1026.8,-222.4 1020.8,-222.4"/>
<text xml:space="preserve" text-anchor="start" x="765.5" y="-202.75" font-family="Helvetica,Arial,sans-serif" font-weight="bold" font-size="11.00" fill="#333333">Aluminium, secondary, from new\nscrap, at plant</text>
<text xml:space="preserve" text-anchor="start" x="881.75" y="-193.65" font-family="Helvetica,Arial,sans-serif" font-size="9.00" fill="#888888">[RER]</text>
<text xml:space="preserve" text-anchor="start" x="840.12" y="-183.7" font-family="Helvetica,Arial,sans-serif" font-size="10.00" fill="#333333">0.116 kg CO2&#45;Eq (2.4%)</text>
</g>
<!-- n2&#45;&gt;n0 -->
<g id="edge3" class="edge">
<title>n2&#45;&gt;n0</title>
<path fill="none" stroke="#555555" d="M1032.94,-197.2C1057.42,-197.2 1082.67,-197.2 1106.44,-197.2"/>
<polygon fill="#555555" stroke="#555555" points="1106.26,-199.65 1113.26,-197.2 1106.26,-194.75 1106.26,-199.65"/>
<text xml:space="preserve" text-anchor="middle" x="1073.8" y="-198.95" font-family="Helvetica,Arial,sans-serif" font-size="10.00">0.313</text>
</g>
<!-- n3 -->
<g id="node5" class="node">
<title>n3</title>
<path fill="#f0f4fa" stroke="black" d="M1018.55,-136.4C1018.55,-136.4 768.95,-136.4 768.95,-136.4 762.95,-136.4 756.95,-130.4 756.95,-124.4 756.95,-124.4 756.95,-98 756.95,-98 756.95,-92 762.95,-86 768.95,-86 768.95,-86 1018.55,-86 1018.55,-86 1024.55,-86 1030.55,-92 1030.55,-98 1030.55,-98 1030.55,-124.4 1030.55,-124.4 1030.55,-130.4 1024.55,-136.4 1018.55,-136.4"/>
<text xml:space="preserve" text-anchor="start" x="767.75" y="-116.75" font-family="Helvetica,Arial,sans-serif" font-weight="bold" font-size="11.00" fill="#333333">Aluminium, secondary, from old\nscrap, at plant</text>
<text xml:space="preserve" text-anchor="start" x="881.75" y="-107.65" font-family="Helvetica,Arial,sans-serif" font-size="9.00" fill="#888888">[RER]</text>
<text xml:space="preserve" text-anchor="start" x="840.12" y="-97.7" font-family="Helvetica,Arial,sans-serif" font-size="10.00" fill="#333333">0.117 kg CO2&#45;Eq (2.4%)</text>
</g>
<!-- n3&#45;&gt;n0 -->
<g id="edge4" class="edge">
<title>n3&#45;&gt;n0</title>
<path fill="none" stroke="#555555" d="M992.41,-136.89C1031.49,-147.16 1076.59,-159.03 1116.4,-169.5"/>
<polygon fill="#555555" stroke="#555555" points="1115.43,-171.78 1122.82,-171.19 1116.68,-167.04 1115.43,-171.78"/>
<text xml:space="preserve" text-anchor="middle" x="1073.8" y="-161.1" font-family="Helvetica,Arial,sans-serif" font-size="10.00">0.175</text>
</g>
<!-- n4 -->
<g id="node6" class="node">
<title>n4</title>
<path fill="#f0f4fa" stroke="black" d="M627.32,-308.4C627.32,-308.4 439.22,-308.4 439.22,-308.4 433.22,-308.4 427.22,-302.4 427.22,-296.4 427.22,-296.4 427.22,-270 427.22,-270 427.22,-264 433.22,-258 439.22,-258 439.22,-258 627.32,-258 627.32,-258 633.32,-258 639.32,-264 639.32,-270 639.32,-270 639.32,-296.4 639.32,-296.4 639.32,-302.4 633.32,-308.4 627.32,-308.4"/>
<text xml:space="preserve" text-anchor="start" x="438.02" y="-288.75" font-family="Helvetica,Arial,sans-serif" font-weight="bold" font-size="11.00" fill="#333333">Aluminium, primary, liquid, at\nplant</text>
<text xml:space="preserve" text-anchor="start" x="521.27" y="-279.65" font-family="Helvetica,Arial,sans-serif" font-size="9.00" fill="#888888">[RER]</text>
<text xml:space="preserve" text-anchor="start" x="477.02" y="-269.7" font-family="Helvetica,Arial,sans-serif" font-size="10.00" fill="#333333">4.622 kg CO2&#45;Eq (94.6%)</text>
</g>
<!-- n4&#45;&gt;n1 -->
<g id="edge5" class="edge">
<title>n4&#45;&gt;n1</title>
<path fill="none" stroke="#555555" d="M639.41,-283.2C689.79,-283.2 749.66,-283.2 798.55,-283.2"/>
<polygon fill="#555555" stroke="#555555" points="798.4,-285.65 805.4,-283.2 798.4,-280.75 798.4,-285.65"/>
<text xml:space="preserve" text-anchor="middle" x="713.7" y="-284.95" font-family="Helvetica,Arial,sans-serif" font-size="10.00">0.522</text>
</g>
<!-- n5 -->
<g id="node7" class="node">
<title>n5</title>
<path fill="#f0f4fa" stroke="black" d="M232.95,-394.4C232.95,-394.4 84.15,-394.4 84.15,-394.4 78.15,-394.4 72.15,-388.4 72.15,-382.4 72.15,-382.4 72.15,-356 72.15,-356 72.15,-350 78.15,-344 84.15,-344 84.15,-344 232.95,-344 232.95,-344 238.95,-344 244.95,-350 244.95,-356 244.95,-356 244.95,-382.4 244.95,-382.4 244.95,-388.4 238.95,-394.4 232.95,-394.4"/>
<text xml:space="preserve" text-anchor="start" x="91.8" y="-374.75" font-family="Helvetica,Arial,sans-serif" font-weight="bold" font-size="11.00" fill="#333333">Aluminium oxide, at plant</text>
<text xml:space="preserve" text-anchor="start" x="146.55" y="-365.65" font-family="Helvetica,Arial,sans-serif" font-size="9.00" fill="#888888">[RER]</text>
<text xml:space="preserve" text-anchor="start" x="102.3" y="-355.7" font-family="Helvetica,Arial,sans-serif" font-size="10.00" fill="#333333">1.208 kg CO2&#45;Eq (24.7%)</text>
</g>
<!-- n5&#45;&gt;n4 -->
<g id="edge6" class="edge">
<title>n5&#45;&gt;n4</title>
<path fill="none" stroke="#555555" d="M245.06,-349.47C296.58,-337.58 362.82,-322.3 418.69,-309.41"/>
<polygon fill="#555555" stroke="#555555" points="419.11,-311.82 425.38,-307.86 418.01,-307.05 419.11,-311.82"/>
<text xml:space="preserve" text-anchor="middle" x="355.47" y="-325.37" font-family="Helvetica,Arial,sans-serif" font-size="10.00">1</text>
</g>
<!-- n6 -->
<g id="node8" class="node">
<title>n6</title>
<path fill="#f0f4fa" stroke="black" d="M236.47,-308.4C236.47,-308.4 80.62,-308.4 80.62,-308.4 74.62,-308.4 68.62,-302.4 68.62,-296.4 68.62,-296.4 68.62,-270 68.62,-270 68.62,-264 74.62,-258 80.62,-258 80.62,-258 236.47,-258 236.47,-258 242.47,-258 248.47,-264 248.47,-270 248.47,-270 248.47,-296.4 248.47,-296.4 248.47,-302.4 242.47,-308.4 236.47,-308.4"/>
<text xml:space="preserve" text-anchor="start" x="79.42" y="-288.75" font-family="Helvetica,Arial,sans-serif" font-weight="bold" font-size="11.00" fill="#333333">Anode, aluminium electrolysis</text>
<text xml:space="preserve" text-anchor="start" x="146.55" y="-279.65" font-family="Helvetica,Arial,sans-serif" font-size="9.00" fill="#888888">[RER]</text>
<text xml:space="preserve" text-anchor="start" x="104.92" y="-269.7" font-family="Helvetica,Arial,sans-serif" font-size="10.00" fill="#333333">0.214 kg CO2&#45;Eq (4.4%)</text>
</g>
<!-- n6&#45;&gt;n4 -->
<g id="edge7" class="edge">
<title>n6&#45;&gt;n4</title>
<path fill="none" stroke="#555555" d="M248.83,-283.2C299.73,-283.2 364.05,-283.2 418.54,-283.2"/>
<polygon fill="#555555" stroke="#555555" points="418.34,-285.65 425.34,-283.2 418.34,-280.75 418.34,-285.65"/>
<text xml:space="preserve" text-anchor="middle" x="355.47" y="-284.95" font-family="Helvetica,Arial,sans-serif" font-size="10.00">0.23</text>
</g>
<!-- n7 -->
<g id="node9" class="node">
<title>n7</title>
<path fill="#f0f4fa" stroke="black" d="M305.1,-222.4C305.1,-222.4 12,-222.4 12,-222.4 6,-222.4 0,-216.4 0,-210.4 0,-210.4 0,-184 0,-184 0,-178 6,-172 12,-172 12,-172 305.1,-172 305.1,-172 311.1,-172 317.1,-178 317.1,-184 317.1,-184 317.1,-210.4 317.1,-210.4 317.1,-216.4 311.1,-222.4 305.1,-222.4"/>
<text xml:space="preserve" text-anchor="start" x="10.8" y="-202.75" font-family="Helvetica,Arial,sans-serif" font-weight="bold" font-size="11.00" fill="#333333">Electricity, medium voltage,\naluminium industry, at grid</text>
<text xml:space="preserve" text-anchor="start" x="146.92" y="-193.65" font-family="Helvetica,Arial,sans-serif" font-size="9.00" fill="#888888">[GLO]</text>
<text xml:space="preserve" text-anchor="start" x="102.3" y="-183.7" font-family="Helvetica,Arial,sans-serif" font-size="10.00" fill="#333333">2.125 kg CO2&#45;Eq (43.5%)</text>
</g>
<!-- n7&#45;&gt;n4 -->
<g id="edge8" class="edge">
<title>n7&#45;&gt;n4</title>
<path fill="none" stroke="#555555" d="M270.87,-222.89C317.62,-233.67 371.92,-246.2 418.88,-257.04"/>
<polygon fill="#555555" stroke="#555555" points="418.1,-259.37 425.48,-258.56 419.21,-254.6 418.1,-259.37"/>
<text xml:space="preserve" text-anchor="middle" x="355.47" y="-244.53" font-family="Helvetica,Arial,sans-serif" font-size="10.00">7.77</text>
</g>
<!-- n8 -->
<g id="node10" class="node">
<title>n8</title>
<path fill="#f0f4fa" stroke="black" d="M660.7,-136.4C660.7,-136.4 405.85,-136.4 405.85,-136.4 399.85,-136.4 393.85,-130.4 393.85,-124.4 393.85,-124.4 393.85,-98 393.85,-98 393.85,-92 399.85,-86 405.85,-86 405.85,-86 660.7,-86 660.7,-86 666.7,-86 672.7,-92 672.7,-98 672.7,-98 672.7,-124.4 672.7,-124.4 672.7,-130.4 666.7,-136.4 660.7,-136.4"/>
<text xml:space="preserve" text-anchor="start" x="404.65" y="-116.75" font-family="Helvetica,Arial,sans-serif" font-weight="bold" font-size="11.00" fill="#333333">Natural gas, burned in\nindustrial furnace 1MWth</text>
<text xml:space="preserve" text-anchor="start" x="524.27" y="-107.65" font-family="Helvetica,Arial,sans-serif" font-size="9.00" fill="#888888">[CH]</text>
<text xml:space="preserve" text-anchor="start" x="479.65" y="-97.7" font-family="Helvetica,Arial,sans-serif" font-size="10.00" fill="#333333">0.052 kg CO2&#45;Eq (1.1%)</text>
</g>
<!-- n8&#45;&gt;n3 -->
<g id="edge9" class="edge">
<title>n8&#45;&gt;n3</title>
<path fill="none" stroke="#555555" d="M673.13,-111.2C697.72,-111.2 723.38,-111.2 748.13,-111.2"/>
<polygon fill="#555555" stroke="#555555" points="747.97,-113.65 754.97,-111.2 747.97,-108.75 747.97,-113.65"/>
<text xml:space="preserve" text-anchor="middle" x="713.7" y="-112.95" font-family="Helvetica,Arial,sans-serif" font-size="10.00">0.664</text>
</g>
<!-- n9 -->
<g id="node11" class="node">
<title>n9</title>
<path fill="#f0f4fa" stroke="black" d="M610.45,-50.4C610.45,-50.4 456.1,-50.4 456.1,-50.4 450.1,-50.4 444.1,-44.4 444.1,-38.4 444.1,-38.4 444.1,-12 444.1,-12 444.1,-6 450.1,0 456.1,0 456.1,0 610.45,0 610.45,0 616.45,0 622.45,-6 622.45,-12 622.45,-12 622.45,-38.4 622.45,-38.4 622.45,-44.4 616.45,-50.4 610.45,-50.4"/>
<text xml:space="preserve" text-anchor="start" x="454.9" y="-30.75" font-family="Helvetica,Arial,sans-serif" font-weight="bold" font-size="11.00" fill="#333333">Aluminium scrap, old, at plant</text>
<text xml:space="preserve" text-anchor="start" x="521.27" y="-21.65" font-family="Helvetica,Arial,sans-serif" font-size="9.00" fill="#888888">[RER]</text>
<text xml:space="preserve" text-anchor="start" x="479.65" y="-11.7" font-family="Helvetica,Arial,sans-serif" font-size="10.00" fill="#333333">0.057 kg CO2&#45;Eq (1.2%)</text>
</g>
<!-- n9&#45;&gt;n3 -->
<g id="edge10" class="edge">
<title>n9&#45;&gt;n3</title>
<path fill="none" stroke="#555555" d="M622.89,-46.46C669.63,-57.67 727.53,-71.56 777.7,-83.6"/>
<polygon fill="#555555" stroke="#555555" points="776.83,-85.91 784.21,-85.16 777.97,-81.14 776.83,-85.91"/>
<text xml:space="preserve" text-anchor="middle" x="713.7" y="-72.53" font-family="Helvetica,Arial,sans-serif" font-size="10.00">0.195</text>
</g>
<!-- n10 -->
<g id="node12" class="node">
<title>n10</title>
<path fill="#f0f4fa" stroke="black" d="M660.7,-222.4C660.7,-222.4 405.85,-222.4 405.85,-222.4 399.85,-222.4 393.85,-216.4 393.85,-210.4 393.85,-210.4 393.85,-184 393.85,-184 393.85,-178 399.85,-172 405.85,-172 405.85,-172 660.7,-172 660.7,-172 666.7,-172 672.7,-178 672.7,-184 672.7,-184 672.7,-210.4 672.7,-210.4 672.7,-216.4 666.7,-222.4 660.7,-222.4"/>
<text xml:space="preserve" text-anchor="start" x="404.65" y="-202.75" font-family="Helvetica,Arial,sans-serif" font-weight="bold" font-size="11.00" fill="#333333">Natural gas, burned in\nindustrial furnace 1MWth</text>
<text xml:space="preserve" text-anchor="start" x="524.27" y="-193.65" font-family="Helvetica,Arial,sans-serif" font-size="9.00" fill="#888888">[CH]</text>
<text xml:space="preserve" text-anchor="start" x="479.65" y="-183.7" font-family="Helvetica,Arial,sans-serif" font-size="10.00" fill="#333333">0.090 kg CO2&#45;Eq (1.8%)</text>
</g>
<!-- n10&#45;&gt;n2 -->
<g id="edge11" class="edge">
<title>n10&#45;&gt;n2</title>
<path fill="none" stroke="#555555" d="M673.13,-197.2C697,-197.2 721.87,-197.2 745.94,-197.2"/>
<polygon fill="#555555" stroke="#555555" points="745.9,-199.65 752.9,-197.2 745.9,-194.75 745.9,-199.65"/>
<text xml:space="preserve" text-anchor="middle" x="713.7" y="-198.95" font-family="Helvetica,Arial,sans-serif" font-size="10.00">1.15</text>
</g>
</g>
</svg>
