<?xml version="1.0" encoding="UTF-8" standalone="no"?>
<!DOCTYPE svg PUBLIC "-//W3C//DTD SVG 1.1//EN"
 "http://www.w3.org/Graphics/SVG/1.1/DTD/svg11.dtd">
<!-- Generated by graphviz version 15.0.0 (20260523.1842)
 -->
<!-- Title: G Pages: 1 -->
<svg width="1439pt" height="315pt"
 viewBox="0.00 0.00 1439.00 315.00" xmlns="http://www.w3.org/2000/svg" xmlns:xlink="http://www.w3.org/1999/xlink">
<g id="graph0" class="graph" transform="scale(1 1) rotate(0) translate(28.8 286.2)">
<title>G</title>
<polygon fill="white" stroke="none" points="-28.8,28.8 -28.8,-286.2 1410.55,-286.2 1410.55,28.8 -28.8,28.8"/>
<text xml:space="preserve" text-anchor="middle" x="690.87" y="-241.05" font-family="Helvetica,Arial,sans-serif" font-size="13.00">Yarn production, cotton fibres [GLO]</text>
<text xml:space="preserve" text-anchor="middle" x="690.87" y="-227.55" font-family="Helvetica,Arial,sans-serif" font-size="13.00">climate change (global warming potential (GWP100)) &#160;| &#160;Total: 5.4774 kg CO2&#45;Eq</text>
<!-- n_1 -->
<g id="node1" class="node">
<title>n_1</title>
<path fill="#7b4ea6" stroke="black" d="M1369.75,-136.4C1369.75,-136.4 1227.4,-136.4 1227.4,-136.4 1221.4,-136.4 1215.4,-130.4 1215.4,-124.4 1215.4,-124.4 1215.4,-98 1215.4,-98 1215.4,-92 1221.4,-86 1227.4,-86 1227.4,-86 1369.75,-86 1369.75,-86 1375.75,-86 1381.75,-92 1381.75,-98 1381.75,-98 1381.75,-124.4 1381.75,-124.4 1381.75,-130.4 1375.75,-136.4 1369.75,-136.4"/>
<text xml:space="preserve" text-anchor="start" x="1258.45" y="-117.25" font-family="Helvetica,Arial,sans-serif" font-weight="bold" font-size="11.00" fill="white">Functional Unit</text>
<text xml:space="preserve" text-anchor="start" x="1226.2" y="-107.2" font-family="Helvetica,Arial,sans-serif" font-size="10.00" fill="white">1 × Yarn production, cotton fibres</text>
<text xml:space="preserve" text-anchor="start" x="1259.95" y="-97.2" font-family="Helvetica,Arial,sans-serif" font-weight="bold" font-size="10.00" fill="white">5.477 kg CO2&#45;Eq</text>
</g>
<!-- n0 -->
<g id="node2" class="node">
<title>n0</title>
<path fill="#3a7ebf" stroke="black" d="M1140.15,-136.4C1140.15,-136.4 985.05,-136.4 985.05,-136.4 979.05,-136.4 973.05,-130.4 973.05,-124.4 973.05,-124.4 973.05,-98 973.05,-98 973.05,-92 979.05,-86 985.05,-86 985.05,-86 1140.15,-86 1140.15,-86 1146.15,-86 1152.15,-92 1152.15,-98 1152.15,-98 1152.15,-124.4 1152.15,-124.4 1152.15,-130.4 1146.15,-136.4 1140.15,-136.4"/>
<text xml:space="preserve" text-anchor="start" x="983.85" y="-116.75" font-family="Helvetica,Arial,sans-serif" font-weight="bold" font-size="11.00" fill="white">Yarn production, cotton fibres</text>
<text xml:space="preserve" text-anchor="start" x="1050.97" y="-107.65" font-family="Helvetica,Arial,sans-serif" font-size="9.00" fill="#888888">[GLO]</text>
<text xml:space="preserve" text-anchor="start" x="1003.72" y="-97.7" font-family="Helvetica,Arial,sans-serif" font-size="10.00" fill="white">5.477 kg CO2&#45;Eq (100.0%)</text>
</g>
<!-- n0&#45;&gt;n_1 -->
<g id="edge1" class="edge">
<title>n0&#45;&gt;n_1</title>
<path fill="none" stroke="#555555" d="M1152.39,-111.2C1170.21,-111.2 1188.97,-111.2 1206.86,-111.2"/>
<polygon fill="#555555" stroke="#555555" points="1206.5,-113.65 1213.5,-111.2 1206.5,-108.75 1206.5,-113.65"/>
<text xml:space="preserve" text-anchor="middle" x="1183.77" y="-112.95" font-family="Helvetica,Arial,sans-serif" font-size="10.00">1</text>
</g>
<!-- n1 -->
<g id="node3" class="node">
<title>n1</title>
<path fill="#f0f4fa" stroke="black" d="M884.3,-222.4C884.3,-222.4 566.45,-222.4 566.45,-222.4 560.45,-222.4 554.45,-216.4 554.45,-210.4 554.45,-210.4 554.45,-184 554.45,-184 554.45,-178 560.45,-172 566.45,-172 566.45,-172 884.3,-172 884.3,-172 890.3,-172 896.3,-178 896.3,-184 896.3,-184 896.3,-210.4 896.3,-210.4 896.3,-216.4 890.3,-222.4 884.3,-222.4"/>
<text xml:space="preserve" text-anchor="start" x="565.25" y="-202.75" font-family="Helvetica,Arial,sans-serif" font-weight="bold" font-size="11.00" fill="#333333">Transport, freight, lorry,\n16t&#45;32t gross weight, fleet\naverage</text>
<text xml:space="preserve" text-anchor="start" x="713.37" y="-193.65" font-family="Helvetica,Arial,sans-serif" font-size="9.00" fill="#888888">[RER]</text>
<text xml:space="preserve" text-anchor="start" x="671.75" y="-183.7" font-family="Helvetica,Arial,sans-serif" font-size="10.00" fill="#333333">0.103 kg CO2&#45;Eq (1.9%)</text>
</g>
<!-- n1&#45;&gt;n0 -->
<g id="edge2" class="edge">
<title>n1&#45;&gt;n0</title>
<path fill="none" stroke="#555555" d="M828.39,-171.5C850.77,-165.83 874.34,-159.83 896.3,-154.2 918.43,-148.52 942.21,-142.37 964.64,-136.54"/>
<polygon fill="#555555" stroke="#555555" points="965.22,-138.92 971.37,-134.79 963.98,-134.18 965.22,-138.92"/>
<text xml:space="preserve" text-anchor="middle" x="934.67" y="-147.8" font-family="Helvetica,Arial,sans-serif" font-size="10.00">0.45</text>
</g>
<!-- n2 -->
<g id="node4" class="node">
<title>n2</title>
<path fill="#f0f4fa" stroke="black" d="M806.3,-136.4C806.3,-136.4 644.45,-136.4 644.45,-136.4 638.45,-136.4 632.45,-130.4 632.45,-124.4 632.45,-124.4 632.45,-98 632.45,-98 632.45,-92 638.45,-86 644.45,-86 644.45,-86 806.3,-86 806.3,-86 812.3,-86 818.3,-92 818.3,-98 818.3,-98 818.3,-124.4 818.3,-124.4 818.3,-130.4 812.3,-136.4 806.3,-136.4"/>
<text xml:space="preserve" text-anchor="start" x="643.25" y="-116.75" font-family="Helvetica,Arial,sans-serif" font-weight="bold" font-size="11.00" fill="#333333">Electricity, low voltage, at\ngrid</text>
<text xml:space="preserve" text-anchor="start" x="716.75" y="-107.65" font-family="Helvetica,Arial,sans-serif" font-size="9.00" fill="#888888">[US]</text>
<text xml:space="preserve" text-anchor="start" x="669.12" y="-97.7" font-family="Helvetica,Arial,sans-serif" font-size="10.00" fill="#333333">1.527 kg CO2&#45;Eq (27.9%)</text>
</g>
<!-- n2&#45;&gt;n0 -->
<g id="edge3" class="edge">
<title>n2&#45;&gt;n0</title>
<path fill="none" stroke="#555555" d="M818.42,-111.2C863.67,-111.2 918.22,-111.2 964.18,-111.2"/>
<polygon fill="#555555" stroke="#555555" points="964.14,-113.65 971.14,-111.2 964.14,-108.75 964.14,-113.65"/>
<text xml:space="preserve" text-anchor="middle" x="934.67" y="-112.95" font-family="Helvetica,Arial,sans-serif" font-size="10.00">3.4</text>
</g>
<!-- n3 -->
<g id="node5" class="node">
<title>n3</title>
<path fill="#f0f4fa" stroke="black" d="M806.3,-50.4C806.3,-50.4 644.45,-50.4 644.45,-50.4 638.45,-50.4 632.45,-44.4 632.45,-38.4 632.45,-38.4 632.45,-12 632.45,-12 632.45,-6 638.45,0 644.45,0 644.45,0 806.3,0 806.3,0 812.3,0 818.3,-6 818.3,-12 818.3,-12 818.3,-38.4 818.3,-38.4 818.3,-44.4 812.3,-50.4 806.3,-50.4"/>
<text xml:space="preserve" text-anchor="start" x="643.25" y="-30.75" font-family="Helvetica,Arial,sans-serif" font-weight="bold" font-size="11.00" fill="#333333">Electricity, low voltage, at\ngrid</text>
<text xml:space="preserve" text-anchor="start" x="716.37" y="-21.65" font-family="Helvetica,Arial,sans-serif" font-size="9.00" fill="#888888">[CN]</text>
<text xml:space="preserve" text-anchor="start" x="669.12" y="-11.7" font-family="Helvetica,Arial,sans-serif" font-size="10.00" fill="#333333">3.843 kg CO2&#45;Eq (70.2%)</text>
</g>
<!-- n3&#45;&gt;n0 -->
<g id="edge4" class="edge">
<title>n3&#45;&gt;n0</title>
<path fill="none" stroke="#555555" d="M818.56,-48.41C843.78,-54.79 871.1,-61.73 896.3,-68.2 918.43,-73.88 942.21,-80.03 964.64,-85.86"/>
<polygon fill="#555555" stroke="#555555" points="963.98,-88.22 971.37,-87.61 965.22,-83.48 963.98,-88.22"/>
<text xml:space="preserve" text-anchor="middle" x="934.67" y="-81.67" font-family="Helvetica,Arial,sans-serif" font-size="10.00">5.1</text>
</g>
<!-- n4 -->
<g id="node6" class="node">
<title>n4</title>
<path fill="#f0f4fa" stroke="black" d="M465.7,-50.4C465.7,-50.4 279.85,-50.4 279.85,-50.4 273.85,-50.4 267.85,-44.4 267.85,-38.4 267.85,-38.4 267.85,-12 267.85,-12 267.85,-6 273.85,0 279.85,0 279.85,0 465.7,0 465.7,0 471.7,0 477.7,-6 477.7,-12 477.7,-12 477.7,-38.4 477.7,-38.4 477.7,-44.4 471.7,-50.4 465.7,-50.4"/>
<text xml:space="preserve" text-anchor="start" x="278.65" y="-30.75" font-family="Helvetica,Arial,sans-serif" font-weight="bold" font-size="11.00" fill="#333333">Electricity, medium voltage,\nat grid</text>
<text xml:space="preserve" text-anchor="start" x="363.77" y="-21.65" font-family="Helvetica,Arial,sans-serif" font-size="9.00" fill="#888888">[CN]</text>
<text xml:space="preserve" text-anchor="start" x="316.52" y="-11.7" font-family="Helvetica,Arial,sans-serif" font-size="10.00" fill="#333333">3.830 kg CO2&#45;Eq (69.9%)</text>
</g>
<!-- n4&#45;&gt;n3 -->
<g id="edge5" class="edge">
<title>n4&#45;&gt;n3</title>
<path fill="none" stroke="#555555" d="M478.02,-25.2C524.1,-25.2 578.06,-25.2 623.72,-25.2"/>
<polygon fill="#555555" stroke="#555555" points="623.63,-27.65 630.63,-25.2 623.63,-22.75 623.63,-27.65"/>
<text xml:space="preserve" text-anchor="middle" x="516.07" y="-26.95" font-family="Helvetica,Arial,sans-serif" font-size="10.00">5.24</text>
</g>
<!-- n5 -->
<g id="node7" class="node">
<title>n5</title>
<path fill="#f0f4fa" stroke="black" d="M179.1,-50.4C179.1,-50.4 12,-50.4 12,-50.4 6,-50.4 0,-44.4 0,-38.4 0,-38.4 0,-12 0,-12 0,-6 6,0 12,0 12,0 179.1,0 179.1,0 185.1,0 191.1,-6 191.1,-12 191.1,-12 191.1,-38.4 191.1,-38.4 191.1,-44.4 185.1,-50.4 179.1,-50.4"/>
<text xml:space="preserve" text-anchor="start" x="10.8" y="-30.75" font-family="Helvetica,Arial,sans-serif" font-weight="bold" font-size="11.00" fill="#333333">Electricity, high voltage, at\ngrid</text>
<text xml:space="preserve" text-anchor="start" x="86.55" y="-21.65" font-family="Helvetica,Arial,sans-serif" font-size="9.00" fill="#888888">[CN]</text>
<text xml:space="preserve" text-anchor="start" x="39.3" y="-11.7" font-family="Helvetica,Arial,sans-serif" font-size="10.00" fill="#333333">3.811 kg CO2&#45;Eq (69.6%)</text>
</g>
<!-- n5&#45;&gt;n4 -->
<g id="edge6" class="edge">
<title>n5&#45;&gt;n4</title>
<path fill="none" stroke="#555555" d="M191.27,-25.2C213.15,-25.2 236.64,-25.2 259.2,-25.2"/>
<polygon fill="#555555" stroke="#555555" points="258.95,-27.65 265.95,-25.2 258.95,-22.75 258.95,-27.65"/>
<text xml:space="preserve" text-anchor="middle" x="229.47" y="-26.95" font-family="Helvetica,Arial,sans-serif" font-size="10.00">5.26</text>
</g>
<!-- n6 -->
<g id="node8" class="node">
<title>n6</title>
<path fill="#f0f4fa" stroke="black" d="M465.7,-136.4C465.7,-136.4 279.85,-136.4 279.85,-136.4 273.85,-136.4 267.85,-130.4 267.85,-124.4 267.85,-124.4 267.85,-98 267.85,-98 267.85,-92 273.85,-86 279.85,-86 279.85,-86 465.7,-86 465.7,-86 471.7,-86 477.7,-92 477.7,-98 477.7,-98 477.7,-124.4 477.7,-124.4 477.7,-130.4 471.7,-136.4 465.7,-136.4"/>
<text xml:space="preserve" text-anchor="start" x="278.65" y="-116.75" font-family="Helvetica,Arial,sans-serif" font-weight="bold" font-size="11.00" fill="#333333">Electricity, medium voltage,\nat grid</text>
<text xml:space="preserve" text-anchor="start" x="364.15" y="-107.65" font-family="Helvetica,Arial,sans-serif" font-size="9.00" fill="#888888">[US]</text>
<text xml:space="preserve" text-anchor="start" x="316.52" y="-97.7" font-family="Helvetica,Arial,sans-serif" font-size="10.00" fill="#333333">1.518 kg CO2&#45;Eq (27.7%)</text>
</g>
<!-- n6&#45;&gt;n2 -->
<g id="edge7" class="edge">
<title>n6&#45;&gt;n2</title>
<path fill="none" stroke="#555555" d="M478.02,-111.2C524.1,-111.2 578.06,-111.2 623.72,-111.2"/>
<polygon fill="#555555" stroke="#555555" points="623.63,-113.65 630.63,-111.2 623.63,-108.75 623.63,-113.65"/>
<text xml:space="preserve" text-anchor="middle" x="516.07" y="-112.95" font-family="Helvetica,Arial,sans-serif" font-size="10.00">3.54</text>
</g>
<!-- n7 -->
<g id="node9" class="node">
<title>n7</title>
<path fill="#f0f4fa" stroke="black" d="M179.1,-136.4C179.1,-136.4 12,-136.4 12,-136.4 6,-136.4 0,-130.4 0,-124.4 0,-124.4 0,-98 0,-98 0,-92 6,-86 12,-86 12,-86 179.1,-86 179.1,-86 185.1,-86 191.1,-92 191.1,-98 191.1,-98 191.1,-124.4 191.1,-124.4 191.1,-130.4 185.1,-136.4 179.1,-136.4"/>
<text xml:space="preserve" text-anchor="start" x="10.8" y="-116.75" font-family="Helvetica,Arial,sans-serif" font-weight="bold" font-size="11.00" fill="#333333">Electricity, high voltage, at\ngrid</text>
<text xml:space="preserve" text-anchor="start" x="86.92" y="-107.65" font-family="Helvetica,Arial,sans-serif" font-size="9.00" fill="#888888">[US]</text>
<text xml:space="preserve" text-anchor="start" x="39.3" y="-97.7" font-family="Helvetica,Arial,sans-serif" font-size="10.00" fill="#333333">1.506 kg CO2&#45;Eq (27.5%)</text>
</g>
<!-- n7&#45;&gt;n6 -->
<g id="edge8" class="edge">
<title>n7&#45;&gt;n6</title>
<path fill="none" stroke="#555555" d="M191.27,-111.2C213.15,-111.2 236.64,-111.2 259.2,-111.2"/>
<polygon fill="#555555" stroke="#555555" points="258.95,-113.65 265.95,-111.2 258.95,-108.75 258.95,-113.65"/>
<text xml:space="preserve" text-anchor="middle" x="229.47" y="-112.95" font-family="Helvetica,Arial,sans-serif" font-size="10.00">3.57</text>
</g>
</g>
</svg>
