<?xml version="1.0" encoding="UTF-8" standalone="no"?>
<!DOCTYPE svg PUBLIC "-//W3C//DTD SVG 1.1//EN"
 "http://www.w3.org/Graphics/SVG/1.1/DTD/svg11.dtd">
<!-- Generated by graphviz version 15.0.0 (20260523.1842)
 -->
<!-- Title: G Pages: 1 -->
<svg width="1723pt" height="745pt"
 viewBox="0.00 0.00 1723.00 745.00" xmlns="http://www.w3.org/2000/svg" xmlns:xlink="http://www.w3.org/1999/xlink">
<g id="graph0" class="graph" transform="scale(1 1) rotate(0) translate(28.8 716.2)">
<title>G</title>
<polygon fill="white" stroke="none" points="-28.8,28.8 -28.8,-716.2 1694.5,-716.2 1694.5,28.8 -28.8,28.8"/>
<text xml:space="preserve" text-anchor="middle" x="832.85" y="-671.05" font-family="Helvetica,Arial,sans-serif" font-size="13.00">Flat glass, uncoated, at plant [RER]</text>
<text xml:space="preserve" text-anchor="middle" x="832.85" y="-657.55" font-family="Helvetica,Arial,sans-serif" font-size="13.00">climate change (global warming potential (GWP100)) &#160;| &#160;Total: 1.0130 kg CO2&#45;Eq</text>
<!-- n_1 -->
<g id="node1" class="node">
<title>n_1</title>
<path fill="#7b4ea6" stroke="black" d="M1653.7,-435.4C1653.7,-435.4 1512.1,-435.4 1512.1,-435.4 1506.1,-435.4 1500.1,-429.4 1500.1,-423.4 1500.1,-423.4 1500.1,-397 1500.1,-397 1500.1,-391 1506.1,-385 1512.1,-385 1512.1,-385 1653.7,-385 1653.7,-385 1659.7,-385 1665.7,-391 1665.7,-397 1665.7,-397 1665.7,-423.4 1665.7,-423.4 1665.7,-429.4 1659.7,-435.4 1653.7,-435.4"/>
<text xml:space="preserve" text-anchor="start" x="1542.77" y="-416.25" font-family="Helvetica,Arial,sans-serif" font-weight="bold" font-size="11.00" fill="white">Functional Unit</text>
<text xml:space="preserve" text-anchor="start" x="1510.9" y="-406.2" font-family="Helvetica,Arial,sans-serif" font-size="10.00" fill="white">1 × Flat glass, uncoated, at plant</text>
<text xml:space="preserve" text-anchor="start" x="1544.27" y="-396.2" font-family="Helvetica,Arial,sans-serif" font-weight="bold" font-size="10.00" fill="white">1.013 kg CO2&#45;Eq</text>
</g>
<!-- n0 -->
<g id="node2" class="node">
<title>n0</title>
<path fill="#3a7ebf" stroke="black" d="M1424.85,-435.4C1424.85,-435.4 1276.05,-435.4 1276.05,-435.4 1270.05,-435.4 1264.05,-429.4 1264.05,-423.4 1264.05,-423.4 1264.05,-397 1264.05,-397 1264.05,-391 1270.05,-385 1276.05,-385 1276.05,-385 1424.85,-385 1424.85,-385 1430.85,-385 1436.85,-391 1436.85,-397 1436.85,-397 1436.85,-423.4 1436.85,-423.4 1436.85,-429.4 1430.85,-435.4 1424.85,-435.4"/>
<text xml:space="preserve" text-anchor="start" x="1275.45" y="-415.75" font-family="Helvetica,Arial,sans-serif" font-weight="bold" font-size="11.00" fill="white">Flat glass, uncoated, at plant</text>
<text xml:space="preserve" text-anchor="start" x="1338.45" y="-406.65" font-family="Helvetica,Arial,sans-serif" font-size="9.00" fill="#888888">[RER]</text>
<text xml:space="preserve" text-anchor="start" x="1291.57" y="-396.7" font-family="Helvetica,Arial,sans-serif" font-size="10.00" fill="white">1.013 kg CO2&#45;Eq (100.0%)</text>
</g>
<!-- n0&#45;&gt;n_1 -->
<g id="edge1" class="edge">
<title>n0&#45;&gt;n_1</title>
<path fill="none" stroke="#555555" d="M1437.26,-410.2C1455.02,-410.2 1473.77,-410.2 1491.68,-410.2"/>
<polygon fill="#555555" stroke="#555555" points="1491.33,-412.65 1498.33,-410.2 1491.33,-407.75 1491.33,-412.65"/>
<text xml:space="preserve" text-anchor="middle" x="1468.47" y="-411.95" font-family="Helvetica,Arial,sans-serif" font-size="10.00">1</text>
</g>
<!-- n1 -->
<g id="node3" class="node">
<title>n1</title>
<path fill="#f0f4fa" stroke="black" d="M1113.42,-652.4C1113.42,-652.4 914.07,-652.4 914.07,-652.4 908.07,-652.4 902.07,-646.4 902.07,-640.4 902.07,-640.4 902.07,-614 902.07,-614 902.07,-608 908.07,-602 914.07,-602 914.07,-602 1113.42,-602 1113.42,-602 1119.42,-602 1125.42,-608 1125.42,-614 1125.42,-614 1125.42,-640.4 1125.42,-640.4 1125.42,-646.4 1119.42,-652.4 1113.42,-652.4"/>
<text xml:space="preserve" text-anchor="start" x="912.87" y="-632.75" font-family="Helvetica,Arial,sans-serif" font-weight="bold" font-size="11.00" fill="#333333">Transport, freight, lorry,\nfleet average</text>
<text xml:space="preserve" text-anchor="start" x="1001.75" y="-623.65" font-family="Helvetica,Arial,sans-serif" font-size="9.00" fill="#888888">[RER]</text>
<text xml:space="preserve" text-anchor="start" x="960.12" y="-613.7" font-family="Helvetica,Arial,sans-serif" font-size="10.00" fill="#333333">0.012 kg CO2&#45;Eq (1.2%)</text>
</g>
<!-- n1&#45;&gt;n0 -->
<g id="edge2" class="edge">
<title>n1&#45;&gt;n0</title>
<path fill="none" stroke="#555555" d="M1125.55,-606.25C1143.33,-600.53 1161.05,-593.31 1176.8,-584.2 1240.18,-547.55 1296.35,-481.57 1326.37,-442.24"/>
<polygon fill="#555555" stroke="#555555" points="1328.14,-443.96 1330.41,-436.9 1324.23,-441.01 1328.14,-443.96"/>
<text xml:space="preserve" text-anchor="middle" x="1220.42" y="-563.83" font-family="Helvetica,Arial,sans-serif" font-size="10.00">0.0603</text>
</g>
<!-- n2 -->
<g id="node4" class="node">
<title>n2</title>
<path fill="#f0f4fa" stroke="black" d="M1088.15,-566.4C1088.15,-566.4 939.35,-566.4 939.35,-566.4 933.35,-566.4 927.35,-560.4 927.35,-554.4 927.35,-554.4 927.35,-528 927.35,-528 927.35,-522 933.35,-516 939.35,-516 939.35,-516 1088.15,-516 1088.15,-516 1094.15,-516 1100.15,-522 1100.15,-528 1100.15,-528 1100.15,-554.4 1100.15,-554.4 1100.15,-560.4 1094.15,-566.4 1088.15,-566.4"/>
<text xml:space="preserve" text-anchor="start" x="962.75" y="-546.75" font-family="Helvetica,Arial,sans-serif" font-weight="bold" font-size="11.00" fill="#333333">Silica sand, at plant</text>
<text xml:space="preserve" text-anchor="start" x="1005.12" y="-537.65" font-family="Helvetica,Arial,sans-serif" font-size="9.00" fill="#888888">[DE]</text>
<text xml:space="preserve" text-anchor="start" x="960.12" y="-527.7" font-family="Helvetica,Arial,sans-serif" font-size="10.00" fill="#333333">0.013 kg CO2&#45;Eq (1.3%)</text>
</g>
<!-- n2&#45;&gt;n0 -->
<g id="edge3" class="edge">
<title>n2&#45;&gt;n0</title>
<path fill="none" stroke="#555555" d="M1100.35,-522.1C1125.34,-515.56 1152.47,-507.51 1176.8,-498.2 1219.01,-482.05 1264.47,-458.62 1298.13,-439.99"/>
<polygon fill="#555555" stroke="#555555" points="1299.32,-442.14 1304.24,-436.59 1296.93,-437.86 1299.32,-442.14"/>
<text xml:space="preserve" text-anchor="middle" x="1220.42" y="-487.87" font-family="Helvetica,Arial,sans-serif" font-size="10.00">0.578</text>
</g>
<!-- n3 -->
<g id="node5" class="node">
<title>n3</title>
<path fill="#f0f4fa" stroke="black" d="M1088.15,-480.4C1088.15,-480.4 939.35,-480.4 939.35,-480.4 933.35,-480.4 927.35,-474.4 927.35,-468.4 927.35,-468.4 927.35,-442 927.35,-442 927.35,-436 933.35,-430 939.35,-430 939.35,-430 1088.15,-430 1088.15,-430 1094.15,-430 1100.15,-436 1100.15,-442 1100.15,-442 1100.15,-468.4 1100.15,-468.4 1100.15,-474.4 1094.15,-480.4 1088.15,-480.4"/>
<text xml:space="preserve" text-anchor="start" x="955.62" y="-460.75" font-family="Helvetica,Arial,sans-serif" font-weight="bold" font-size="11.00" fill="#333333">Soda, powder, at plant</text>
<text xml:space="preserve" text-anchor="start" x="1001.75" y="-451.65" font-family="Helvetica,Arial,sans-serif" font-size="9.00" fill="#888888">[RER]</text>
<text xml:space="preserve" text-anchor="start" x="960.12" y="-441.7" font-family="Helvetica,Arial,sans-serif" font-size="10.00" fill="#333333">0.097 kg CO2&#45;Eq (9.6%)</text>
</g>
<!-- n3&#45;&gt;n0 -->
<g id="edge4" class="edge">
<title>n3&#45;&gt;n0</title>
<path fill="none" stroke="#555555" d="M1100.51,-443.67C1147.84,-437.31 1206.7,-429.39 1255.3,-422.86"/>
<polygon fill="#555555" stroke="#555555" points="1255.51,-425.3 1262.12,-421.94 1254.86,-420.45 1255.51,-425.3"/>
<text xml:space="preserve" text-anchor="middle" x="1220.42" y="-430.42" font-family="Helvetica,Arial,sans-serif" font-size="10.00">0.229</text>
</g>
<!-- n4 -->
<g id="node6" class="node">
<title>n4</title>
<path fill="#f0f4fa" stroke="black" d="M1164.8,-394.4C1164.8,-394.4 862.7,-394.4 862.7,-394.4 856.7,-394.4 850.7,-388.4 850.7,-382.4 850.7,-382.4 850.7,-356 850.7,-356 850.7,-350 856.7,-344 862.7,-344 862.7,-344 1164.8,-344 1164.8,-344 1170.8,-344 1176.8,-350 1176.8,-356 1176.8,-356 1176.8,-382.4 1176.8,-382.4 1176.8,-388.4 1170.8,-394.4 1164.8,-394.4"/>
<text xml:space="preserve" text-anchor="start" x="861.5" y="-374.75" font-family="Helvetica,Arial,sans-serif" font-weight="bold" font-size="11.00" fill="#333333">Electricity, medium voltage,\nproduction ENTSO&#45;E, at grid</text>
<text xml:space="preserve" text-anchor="start" x="991.62" y="-365.65" font-family="Helvetica,Arial,sans-serif" font-size="9.00" fill="#888888">[ENTSO&#45;E]</text>
<text xml:space="preserve" text-anchor="start" x="960.12" y="-355.7" font-family="Helvetica,Arial,sans-serif" font-size="10.00" fill="#333333">0.031 kg CO2&#45;Eq (3.1%)</text>
</g>
<!-- n4&#45;&gt;n0 -->
<g id="edge5" class="edge">
<title>n4&#45;&gt;n0</title>
<path fill="none" stroke="#555555" d="M1177.14,-379.08C1196.69,-381 1216.35,-383.27 1235.05,-385.95 1241.77,-386.91 1248.68,-388.04 1255.62,-389.27"/>
<polygon fill="#555555" stroke="#555555" points="1254.96,-391.64 1262.29,-390.48 1255.84,-386.82 1254.96,-391.64"/>
<text xml:space="preserve" text-anchor="middle" x="1220.42" y="-387.7" font-family="Helvetica,Arial,sans-serif" font-size="10.00">0.111</text>
</g>
<!-- n5 -->
<g id="node7" class="node">
<title>n5</title>
<path fill="#f0f4fa" stroke="black" d="M1103.3,-308.4C1103.3,-308.4 924.2,-308.4 924.2,-308.4 918.2,-308.4 912.2,-302.4 912.2,-296.4 912.2,-296.4 912.2,-270 912.2,-270 912.2,-264 918.2,-258 924.2,-258 924.2,-258 1103.3,-258 1103.3,-258 1109.3,-258 1115.3,-264 1115.3,-270 1115.3,-270 1115.3,-296.4 1115.3,-296.4 1115.3,-302.4 1109.3,-308.4 1103.3,-308.4"/>
<text xml:space="preserve" text-anchor="start" x="923" y="-288.75" font-family="Helvetica,Arial,sans-serif" font-weight="bold" font-size="11.00" fill="#333333">Heavy fuel oil, at regional\nstorage</text>
<text xml:space="preserve" text-anchor="start" x="1001.75" y="-279.65" font-family="Helvetica,Arial,sans-serif" font-size="9.00" fill="#888888">[RER]</text>
<text xml:space="preserve" text-anchor="start" x="960.12" y="-269.7" font-family="Helvetica,Arial,sans-serif" font-size="10.00" fill="#333333">0.067 kg CO2&#45;Eq (6.6%)</text>
</g>
<!-- n5&#45;&gt;n0 -->
<g id="edge6" class="edge">
<title>n5&#45;&gt;n0</title>
<path fill="none" stroke="#555555" d="M1115.54,-306.71C1136.04,-312.39 1157.29,-318.94 1176.8,-326.2 1217.9,-341.49 1262.35,-363.24 1295.85,-380.79"/>
<polygon fill="#555555" stroke="#555555" points="1294.59,-382.89 1301.92,-383.98 1296.87,-378.55 1294.59,-382.89"/>
<text xml:space="preserve" text-anchor="middle" x="1220.42" y="-350.3" font-family="Helvetica,Arial,sans-serif" font-size="10.00">0.0738</text>
</g>
<!-- n6 -->
<g id="node8" class="node">
<title>n6</title>
<path fill="#f0f4fa" stroke="black" d="M1120.92,-179.4C1120.92,-179.4 906.57,-179.4 906.57,-179.4 900.57,-179.4 894.57,-173.4 894.57,-167.4 894.57,-167.4 894.57,-141 894.57,-141 894.57,-135 900.57,-129 906.57,-129 906.57,-129 1120.92,-129 1120.92,-129 1126.92,-129 1132.92,-135 1132.92,-141 1132.92,-141 1132.92,-167.4 1132.92,-167.4 1132.92,-173.4 1126.92,-179.4 1120.92,-179.4"/>
<text xml:space="preserve" text-anchor="start" x="905.37" y="-159.75" font-family="Helvetica,Arial,sans-serif" font-weight="bold" font-size="11.00" fill="#333333">Natural gas, high pressure, at\nconsumer</text>
<text xml:space="preserve" text-anchor="start" x="1001.75" y="-150.65" font-family="Helvetica,Arial,sans-serif" font-size="9.00" fill="#888888">[RER]</text>
<text xml:space="preserve" text-anchor="start" x="960.12" y="-140.7" font-family="Helvetica,Arial,sans-serif" font-size="10.00" fill="#333333">0.081 kg CO2&#45;Eq (8.0%)</text>
</g>
<!-- n6&#45;&gt;n0 -->
<g id="edge7" class="edge">
<title>n6&#45;&gt;n0</title>
<path fill="none" stroke="#555555" d="M1072.64,-179.85C1104.68,-195.26 1144.44,-216.47 1176.8,-240.2 1233.72,-281.94 1290.19,-342 1322.36,-378.43"/>
<polygon fill="#555555" stroke="#555555" points="1320.23,-379.72 1326.69,-383.37 1323.91,-376.49 1320.23,-379.72"/>
<text xml:space="preserve" text-anchor="middle" x="1220.42" y="-288.59" font-family="Helvetica,Arial,sans-serif" font-size="10.00">4.56</text>
</g>
<!-- n7 -->
<g id="node9" class="node">
<title>n7</title>
<path fill="#f0f4fa" stroke="black" d="M727.45,-566.4C727.45,-566.4 492.1,-566.4 492.1,-566.4 486.1,-566.4 480.1,-560.4 480.1,-554.4 480.1,-554.4 480.1,-528 480.1,-528 480.1,-522 486.1,-516 492.1,-516 492.1,-516 727.45,-516 727.45,-516 733.45,-516 739.45,-522 739.45,-528 739.45,-528 739.45,-554.4 739.45,-554.4 739.45,-560.4 733.45,-566.4 727.45,-566.4"/>
<text xml:space="preserve" text-anchor="start" x="490.9" y="-546.75" font-family="Helvetica,Arial,sans-serif" font-weight="bold" font-size="11.00" fill="#333333">Heat, at hard coal industrial\nfurnace 1&#45;10MW</text>
<text xml:space="preserve" text-anchor="start" x="597.77" y="-537.65" font-family="Helvetica,Arial,sans-serif" font-size="9.00" fill="#888888">[RER]</text>
<text xml:space="preserve" text-anchor="start" x="556.15" y="-527.7" font-family="Helvetica,Arial,sans-serif" font-size="10.00" fill="#333333">0.074 kg CO2&#45;Eq (7.3%)</text>
</g>
<!-- n7&#45;&gt;n3 -->
<g id="edge8" class="edge">
<title>n7&#45;&gt;n3</title>
<path fill="none" stroke="#555555" d="M730.84,-515.51C791.03,-502.63 862.86,-487.27 918.94,-475.27"/>
<polygon fill="#555555" stroke="#555555" points="919.29,-477.7 925.62,-473.84 918.26,-472.91 919.29,-477.7"/>
<text xml:space="preserve" text-anchor="middle" x="807.07" y="-502.53" font-family="Helvetica,Arial,sans-serif" font-size="10.00">0.546</text>
</g>
<!-- n8 -->
<g id="node10" class="node">
<title>n8</title>
<path fill="#f0f4fa" stroke="black" d="M699.7,-480.4C699.7,-480.4 519.85,-480.4 519.85,-480.4 513.85,-480.4 507.85,-474.4 507.85,-468.4 507.85,-468.4 507.85,-442 507.85,-442 507.85,-436 513.85,-430 519.85,-430 519.85,-430 699.7,-430 699.7,-430 705.7,-430 711.7,-436 711.7,-442 711.7,-442 711.7,-468.4 711.7,-468.4 711.7,-474.4 705.7,-480.4 699.7,-480.4"/>
<text xml:space="preserve" text-anchor="start" x="518.65" y="-460.75" font-family="Helvetica,Arial,sans-serif" font-weight="bold" font-size="11.00" fill="#333333">Sodium chloride, powder, at\nplant</text>
<text xml:space="preserve" text-anchor="start" x="597.77" y="-451.65" font-family="Helvetica,Arial,sans-serif" font-size="9.00" fill="#888888">[RER]</text>
<text xml:space="preserve" text-anchor="start" x="556.15" y="-441.7" font-family="Helvetica,Arial,sans-serif" font-size="10.00" fill="#333333">0.015 kg CO2&#45;Eq (1.5%)</text>
</g>
<!-- n8&#45;&gt;n3 -->
<g id="edge9" class="edge">
<title>n8&#45;&gt;n3</title>
<path fill="none" stroke="#555555" d="M711.95,-455.2C775.39,-455.2 856.6,-455.2 918.65,-455.2"/>
<polygon fill="#555555" stroke="#555555" points="918.37,-457.65 925.37,-455.2 918.37,-452.75 918.37,-457.65"/>
<text xml:space="preserve" text-anchor="middle" x="807.07" y="-456.95" font-family="Helvetica,Arial,sans-serif" font-size="10.00">0.113</text>
</g>
<!-- n9 -->
<g id="node11" class="node">
<title>n9</title>
<path fill="#f0f4fa" stroke="black" d="M716.95,-222.4C716.95,-222.4 502.6,-222.4 502.6,-222.4 496.6,-222.4 490.6,-216.4 490.6,-210.4 490.6,-210.4 490.6,-184 490.6,-184 490.6,-178 496.6,-172 502.6,-172 502.6,-172 716.95,-172 716.95,-172 722.95,-172 728.95,-178 728.95,-184 728.95,-184 728.95,-210.4 728.95,-210.4 728.95,-216.4 722.95,-222.4 716.95,-222.4"/>
<text xml:space="preserve" text-anchor="start" x="501.4" y="-202.75" font-family="Helvetica,Arial,sans-serif" font-weight="bold" font-size="11.00" fill="#333333">Natural gas, high pressure, at\nconsumer</text>
<text xml:space="preserve" text-anchor="start" x="603.77" y="-193.65" font-family="Helvetica,Arial,sans-serif" font-size="9.00" fill="#888888">[IT]</text>
<text xml:space="preserve" text-anchor="start" x="556.15" y="-183.7" font-family="Helvetica,Arial,sans-serif" font-size="10.00" fill="#333333">0.011 kg CO2&#45;Eq (1.1%)</text>
</g>
<!-- n9&#45;&gt;n6 -->
<g id="edge10" class="edge">
<title>n9&#45;&gt;n6</title>
<path fill="none" stroke="#555555" d="M729.21,-184.53C778.46,-179.26 835.71,-173.14 885.82,-167.78"/>
<polygon fill="#555555" stroke="#555555" points="885.92,-170.23 892.62,-167.05 885.4,-165.36 885.92,-170.23"/>
<text xml:space="preserve" text-anchor="middle" x="807.07" y="-178.74" font-family="Helvetica,Arial,sans-serif" font-size="10.00">0.624</text>
</g>
<!-- n10 -->
<g id="node12" class="node">
<title>n10</title>
<path fill="#f0f4fa" stroke="black" d="M716.95,-136.4C716.95,-136.4 502.6,-136.4 502.6,-136.4 496.6,-136.4 490.6,-130.4 490.6,-124.4 490.6,-124.4 490.6,-98 490.6,-98 490.6,-92 496.6,-86 502.6,-86 502.6,-86 716.95,-86 716.95,-86 722.95,-86 728.95,-92 728.95,-98 728.95,-98 728.95,-124.4 728.95,-124.4 728.95,-130.4 722.95,-136.4 716.95,-136.4"/>
<text xml:space="preserve" text-anchor="start" x="501.4" y="-116.75" font-family="Helvetica,Arial,sans-serif" font-weight="bold" font-size="11.00" fill="#333333">Natural gas, high pressure, at\nconsumer</text>
<text xml:space="preserve" text-anchor="start" x="601.15" y="-107.65" font-family="Helvetica,Arial,sans-serif" font-size="9.00" fill="#888888">[DE]</text>
<text xml:space="preserve" text-anchor="start" x="556.15" y="-97.7" font-family="Helvetica,Arial,sans-serif" font-size="10.00" fill="#333333">0.010 kg CO2&#45;Eq (1.0%)</text>
</g>
<!-- n10&#45;&gt;n6 -->
<g id="edge11" class="edge">
<title>n10&#45;&gt;n6</title>
<path fill="none" stroke="#555555" d="M729.21,-123.87C778.46,-129.14 835.71,-135.26 885.82,-140.62"/>
<polygon fill="#555555" stroke="#555555" points="885.4,-143.04 892.62,-141.35 885.92,-138.17 885.4,-143.04"/>
<text xml:space="preserve" text-anchor="middle" x="807.07" y="-134.45" font-family="Helvetica,Arial,sans-serif" font-size="10.00">0.805</text>
</g>
<!-- n11 -->
<g id="node13" class="node">
<title>n11</title>
<path fill="#f0f4fa" stroke="black" d="M716.95,-50.4C716.95,-50.4 502.6,-50.4 502.6,-50.4 496.6,-50.4 490.6,-44.4 490.6,-38.4 490.6,-38.4 490.6,-12 490.6,-12 490.6,-6 496.6,0 502.6,0 502.6,0 716.95,0 716.95,0 722.95,0 728.95,-6 728.95,-12 728.95,-12 728.95,-38.4 728.95,-38.4 728.95,-44.4 722.95,-50.4 716.95,-50.4"/>
<text xml:space="preserve" text-anchor="start" x="501.4" y="-30.75" font-family="Helvetica,Arial,sans-serif" font-weight="bold" font-size="11.00" fill="#333333">Natural gas, high pressure, at\nconsumer</text>
<text xml:space="preserve" text-anchor="start" x="598.52" y="-21.65" font-family="Helvetica,Arial,sans-serif" font-size="9.00" fill="#888888">[RoE]</text>
<text xml:space="preserve" text-anchor="start" x="556.15" y="-11.7" font-family="Helvetica,Arial,sans-serif" font-size="10.00" fill="#333333">0.014 kg CO2&#45;Eq (1.4%)</text>
</g>
<!-- n11&#45;&gt;n6 -->
<g id="edge12" class="edge">
<title>n11&#45;&gt;n6</title>
<path fill="none" stroke="#555555" d="M705.09,-50.85C724.46,-56.37 744.66,-62.32 763.45,-68.2 820.88,-86.18 885.05,-108.36 933.91,-125.7"/>
<polygon fill="#555555" stroke="#555555" points="933.08,-128 940.49,-128.04 934.72,-123.39 933.08,-128"/>
<text xml:space="preserve" text-anchor="middle" x="807.07" y="-87.71" font-family="Helvetica,Arial,sans-serif" font-size="10.00">0.568</text>
</g>
<!-- n12 -->
<g id="node14" class="node">
<title>n12</title>
<path fill="#f0f4fa" stroke="black" d="M309.6,-566.4C309.6,-566.4 59.25,-566.4 59.25,-566.4 53.25,-566.4 47.25,-560.4 47.25,-554.4 47.25,-554.4 47.25,-528 47.25,-528 47.25,-522 53.25,-516 59.25,-516 59.25,-516 309.6,-516 309.6,-516 315.6,-516 321.6,-522 321.6,-528 321.6,-528 321.6,-554.4 321.6,-554.4 321.6,-560.4 315.6,-566.4 309.6,-566.4"/>
<text xml:space="preserve" text-anchor="start" x="58.05" y="-546.75" font-family="Helvetica,Arial,sans-serif" font-weight="bold" font-size="11.00" fill="#333333">Hard coal, burned in\nindustrial furnace 1&#45;10MW</text>
<text xml:space="preserve" text-anchor="start" x="172.42" y="-537.65" font-family="Helvetica,Arial,sans-serif" font-size="9.00" fill="#888888">[RER]</text>
<text xml:space="preserve" text-anchor="start" x="130.8" y="-527.7" font-family="Helvetica,Arial,sans-serif" font-size="10.00" fill="#333333">0.074 kg CO2&#45;Eq (7.3%)</text>
</g>
<!-- n12&#45;&gt;n7 -->
<g id="edge13" class="edge">
<title>n12&#45;&gt;n7</title>
<path fill="none" stroke="#555555" d="M322,-541.2C369.85,-541.2 423.6,-541.2 471.51,-541.2"/>
<polygon fill="#555555" stroke="#555555" points="471.25,-543.65 478.25,-541.2 471.25,-538.75 471.25,-543.65"/>
<text xml:space="preserve" text-anchor="middle" x="412.47" y="-542.95" font-family="Helvetica,Arial,sans-serif" font-size="10.00">0.682</text>
</g>
<!-- n13 -->
<g id="node15" class="node">
<title>n13</title>
<path fill="#f0f4fa" stroke="black" d="M684.17,-308.4C684.17,-308.4 535.37,-308.4 535.37,-308.4 529.37,-308.4 523.37,-302.4 523.37,-296.4 523.37,-296.4 523.37,-270 523.37,-270 523.37,-264 529.37,-258 535.37,-258 535.37,-258 684.17,-258 684.17,-258 690.17,-258 696.17,-264 696.17,-270 696.17,-270 696.17,-296.4 696.17,-296.4 696.17,-302.4 690.17,-308.4 684.17,-308.4"/>
<text xml:space="preserve" text-anchor="start" x="544.9" y="-288.75" font-family="Helvetica,Arial,sans-serif" font-weight="bold" font-size="11.00" fill="#333333">Heavy fuel oil, at refinery</text>
<text xml:space="preserve" text-anchor="start" x="597.77" y="-279.65" font-family="Helvetica,Arial,sans-serif" font-size="9.00" fill="#888888">[RER]</text>
<text xml:space="preserve" text-anchor="start" x="556.15" y="-269.7" font-family="Helvetica,Arial,sans-serif" font-size="10.00" fill="#333333">0.063 kg CO2&#45;Eq (6.2%)</text>
</g>
<!-- n13&#45;&gt;n5 -->
<g id="edge14" class="edge">
<title>n13&#45;&gt;n5</title>
<path fill="none" stroke="#555555" d="M696.52,-283.2C756.99,-283.2 838.49,-283.2 903.61,-283.2"/>
<polygon fill="#555555" stroke="#555555" points="903.36,-285.65 910.36,-283.2 903.36,-280.75 903.36,-285.65"/>
<text xml:space="preserve" text-anchor="middle" x="807.07" y="-284.95" font-family="Helvetica,Arial,sans-serif" font-size="10.00">0.0738</text>
</g>
<!-- n14 -->
<g id="node16" class="node">
<title>n14</title>
<path fill="#f0f4fa" stroke="black" d="M312.97,-308.4C312.97,-308.4 55.87,-308.4 55.87,-308.4 49.87,-308.4 43.87,-302.4 43.87,-296.4 43.87,-296.4 43.87,-270 43.87,-270 43.87,-264 49.87,-258 55.87,-258 55.87,-258 312.97,-258 312.97,-258 318.97,-258 324.97,-264 324.97,-270 324.97,-270 324.97,-296.4 324.97,-296.4 324.97,-302.4 318.97,-308.4 312.97,-308.4"/>
<text xml:space="preserve" text-anchor="start" x="54.67" y="-288.75" font-family="Helvetica,Arial,sans-serif" font-weight="bold" font-size="11.00" fill="#333333">Crude oil, market mix, at long\ndistance transport</text>
<text xml:space="preserve" text-anchor="start" x="172.42" y="-279.65" font-family="Helvetica,Arial,sans-serif" font-size="9.00" fill="#888888">[RER]</text>
<text xml:space="preserve" text-anchor="start" x="130.8" y="-269.7" font-family="Helvetica,Arial,sans-serif" font-size="10.00" fill="#333333">0.049 kg CO2&#45;Eq (4.9%)</text>
</g>
<!-- n14&#45;&gt;n13 -->
<g id="edge15" class="edge">
<title>n14&#45;&gt;n13</title>
<path fill="none" stroke="#555555" d="M325.22,-283.2C387.42,-283.2 459.01,-283.2 514.69,-283.2"/>
<polygon fill="#555555" stroke="#555555" points="514.63,-285.65 521.63,-283.2 514.63,-280.75 514.63,-285.65"/>
<text xml:space="preserve" text-anchor="middle" x="412.47" y="-284.95" font-family="Helvetica,Arial,sans-serif" font-size="10.00">0.0709</text>
</g>
<!-- n15 -->
<g id="node17" class="node">
<title>n15</title>
<path fill="#f0f4fa" stroke="black" d="M751.45,-394.4C751.45,-394.4 468.1,-394.4 468.1,-394.4 462.1,-394.4 456.1,-388.4 456.1,-382.4 456.1,-382.4 456.1,-356 456.1,-356 456.1,-350 462.1,-344 468.1,-344 468.1,-344 751.45,-344 751.45,-344 757.45,-344 763.45,-350 763.45,-356 763.45,-356 763.45,-382.4 763.45,-382.4 763.45,-388.4 757.45,-394.4 751.45,-394.4"/>
<text xml:space="preserve" text-anchor="start" x="466.9" y="-374.75" font-family="Helvetica,Arial,sans-serif" font-weight="bold" font-size="11.00" fill="#333333">Electricity, high voltage,\nproduction ENTSO&#45;E, at grid</text>
<text xml:space="preserve" text-anchor="start" x="587.65" y="-365.65" font-family="Helvetica,Arial,sans-serif" font-size="9.00" fill="#888888">[ENTSO&#45;E]</text>
<text xml:space="preserve" text-anchor="start" x="556.15" y="-355.7" font-family="Helvetica,Arial,sans-serif" font-size="10.00" fill="#333333">0.031 kg CO2&#45;Eq (3.0%)</text>
</g>
<!-- n15&#45;&gt;n4 -->
<g id="edge16" class="edge">
<title>n15&#45;&gt;n4</title>
<path fill="none" stroke="#555555" d="M763.89,-369.2C789.42,-369.2 816.04,-369.2 841.97,-369.2"/>
<polygon fill="#555555" stroke="#555555" points="841.85,-371.65 848.85,-369.2 841.85,-366.75 841.85,-371.65"/>
<text xml:space="preserve" text-anchor="middle" x="807.07" y="-370.95" font-family="Helvetica,Arial,sans-serif" font-size="10.00">0.112</text>
</g>
<!-- n16 -->
<g id="node18" class="node">
<title>n16</title>
<path fill="#f0f4fa" stroke="black" d="M258.82,-394.4C258.82,-394.4 110.02,-394.4 110.02,-394.4 104.02,-394.4 98.02,-388.4 98.02,-382.4 98.02,-382.4 98.02,-356 98.02,-356 98.02,-350 104.02,-344 110.02,-344 110.02,-344 258.82,-344 258.82,-344 264.82,-344 270.82,-350 270.82,-356 270.82,-356 270.82,-382.4 270.82,-382.4 270.82,-388.4 264.82,-394.4 258.82,-394.4"/>
<text xml:space="preserve" text-anchor="start" x="115.42" y="-374.75" font-family="Helvetica,Arial,sans-serif" font-weight="bold" font-size="11.00" fill="#333333">Electricity, production mix</text>
<text xml:space="preserve" text-anchor="start" x="162.3" y="-365.65" font-family="Helvetica,Arial,sans-serif" font-size="9.00" fill="#888888">[ENTSO&#45;E]</text>
<text xml:space="preserve" text-anchor="start" x="130.8" y="-355.7" font-family="Helvetica,Arial,sans-serif" font-size="10.00" fill="#333333">0.030 kg CO2&#45;Eq (3.0%)</text>
</g>
<!-- n16&#45;&gt;n15 -->
<g id="edge17" class="edge">
<title>n16&#45;&gt;n15</title>
<path fill="none" stroke="#555555" d="M271.1,-369.2C321.75,-369.2 387.53,-369.2 447.57,-369.2"/>
<polygon fill="#555555" stroke="#555555" points="447.48,-371.65 454.48,-369.2 447.48,-366.75 447.48,-371.65"/>
<text xml:space="preserve" text-anchor="middle" x="412.47" y="-370.95" font-family="Helvetica,Arial,sans-serif" font-size="10.00">0.115</text>
</g>
<!-- n17 -->
<g id="node19" class="node">
<title>n17</title>
<path fill="#f0f4fa" stroke="black" d="M727.45,-652.4C727.45,-652.4 492.1,-652.4 492.1,-652.4 486.1,-652.4 480.1,-646.4 480.1,-640.4 480.1,-640.4 480.1,-614 480.1,-614 480.1,-608 486.1,-602 492.1,-602 492.1,-602 727.45,-602 727.45,-602 733.45,-602 739.45,-608 739.45,-614 739.45,-614 739.45,-640.4 739.45,-640.4 739.45,-646.4 733.45,-652.4 727.45,-652.4"/>
<text xml:space="preserve" text-anchor="start" x="490.9" y="-632.75" font-family="Helvetica,Arial,sans-serif" font-weight="bold" font-size="11.00" fill="#333333">Heat, light fuel oil, at\nindustrial furnace 1MW</text>
<text xml:space="preserve" text-anchor="start" x="600.77" y="-623.65" font-family="Helvetica,Arial,sans-serif" font-size="9.00" fill="#888888">[CH]</text>
<text xml:space="preserve" text-anchor="start" x="556.15" y="-613.7" font-family="Helvetica,Arial,sans-serif" font-size="10.00" fill="#333333">0.012 kg CO2&#45;Eq (1.2%)</text>
</g>
<!-- n17&#45;&gt;n2 -->
<g id="edge18" class="edge">
<title>n17&#45;&gt;n2</title>
<path fill="none" stroke="#555555" d="M730.84,-601.51C791.03,-588.63 862.86,-573.27 918.94,-561.27"/>
<polygon fill="#555555" stroke="#555555" points="919.29,-563.7 925.62,-559.84 918.26,-558.91 919.29,-563.7"/>
<text xml:space="preserve" text-anchor="middle" x="807.07" y="-588.53" font-family="Helvetica,Arial,sans-serif" font-size="10.00">0.116</text>
</g>
<!-- n18 -->
<g id="node20" class="node">
<title>n18</title>
<path fill="#f0f4fa" stroke="black" d="M356.85,-652.4C356.85,-652.4 12,-652.4 12,-652.4 6,-652.4 0,-646.4 0,-640.4 0,-640.4 0,-614 0,-614 0,-608 6,-602 12,-602 12,-602 356.85,-602 356.85,-602 362.85,-602 368.85,-608 368.85,-614 368.85,-614 368.85,-640.4 368.85,-640.4 368.85,-646.4 362.85,-652.4 356.85,-652.4"/>
<text xml:space="preserve" text-anchor="start" x="10.8" y="-632.75" font-family="Helvetica,Arial,sans-serif" font-weight="bold" font-size="11.00" fill="#333333">Light fuel oil, burned in\nindustrial furnace 1MW,\nnon&#45;modulating</text>
<text xml:space="preserve" text-anchor="start" x="175.42" y="-623.65" font-family="Helvetica,Arial,sans-serif" font-size="9.00" fill="#888888">[CH]</text>
<text xml:space="preserve" text-anchor="start" x="130.8" y="-613.7" font-family="Helvetica,Arial,sans-serif" font-size="10.00" fill="#333333">0.012 kg CO2&#45;Eq (1.2%)</text>
</g>
<!-- n18&#45;&gt;n17 -->
<g id="edge19" class="edge">
<title>n18&#45;&gt;n17</title>
<path fill="none" stroke="#555555" d="M369.27,-627.2C403.62,-627.2 438.97,-627.2 471.61,-627.2"/>
<polygon fill="#555555" stroke="#555555" points="471.33,-629.65 478.33,-627.2 471.33,-624.75 471.33,-629.65"/>
<text xml:space="preserve" text-anchor="middle" x="412.47" y="-628.95" font-family="Helvetica,Arial,sans-serif" font-size="10.00">0.122</text>
</g>
</g>
</svg>
