<?xml version="1.0" encoding="UTF-8" standalone="no"?>
<!DOCTYPE svg PUBLIC "-//W3C//DTD SVG 1.1//EN"
 "http://www.w3.org/Graphics/SVG/1.1/DTD/svg11.dtd">
<!-- Generated by graphviz version 15.0.0 (20260523.1842)
 -->
<!-- Title: G Pages: 1 -->
<svg width="1423pt" height="573pt"
 viewBox="0.00 0.00 1423.00 573.00" xmlns="http://www.w3.org/2000/svg" xmlns:xlink="http://www.w3.org/1999/xlink">
<g id="graph0" class="graph" transform="scale(1 1) rotate(0) translate(28.8 544.2)">
<title>G</title>
<polygon fill="white" stroke="none" points="-28.8,28.8 -28.8,-544.2 1394.15,-544.2 1394.15,28.8 -28.8,28.8"/>
<text xml:space="preserve" text-anchor="middle" x="682.67" y="-499.05" font-family="Helvetica,Arial,sans-serif" font-size="13.00">Plastic broom [GLO]</text>
<text xml:space="preserve" text-anchor="middle" x="682.67" y="-485.55" font-family="Helvetica,Arial,sans-serif" font-size="13.00">climate change (global warming potential (GWP100)) &#160;| &#160;Total: 1.7469 kg CO2&#45;Eq</text>
<!-- n -->
<g id="node1" class="node">
<title>n</title>
<path fill="lightgrey" stroke="black" d="M1353.35,-258.2C1353.35,-258.2 1323.35,-258.2 1323.35,-258.2 1317.35,-258.2 1311.35,-252.2 1311.35,-246.2 1311.35,-246.2 1311.35,-234.2 1311.35,-234.2 1311.35,-228.2 1317.35,-222.2 1323.35,-222.2 1323.35,-222.2 1353.35,-222.2 1353.35,-222.2 1359.35,-222.2 1365.35,-228.2 1365.35,-234.2 1365.35,-234.2 1365.35,-246.2 1365.35,-246.2 1365.35,-252.2 1359.35,-258.2 1353.35,-258.2"/>
<text xml:space="preserve" text-anchor="middle" x="1338.35" y="-235.75" font-family="Helvetica,Arial,sans-serif" font-size="11.00">n</text>
</g>
<!-- &#45;1 -->
<g id="node2" class="node">
<title>&#45;1</title>
<path fill="#7b4ea6" stroke="black" d="M230.25,-480.4C230.25,-480.4 95.85,-480.4 95.85,-480.4 89.85,-480.4 83.85,-474.4 83.85,-468.4 83.85,-468.4 83.85,-442 83.85,-442 83.85,-436 89.85,-430 95.85,-430 95.85,-430 230.25,-430 230.25,-430 236.25,-430 242.25,-436 242.25,-442 242.25,-442 242.25,-468.4 242.25,-468.4 242.25,-474.4 236.25,-480.4 230.25,-480.4"/>
<text xml:space="preserve" text-anchor="middle" x="163.05" y="-450.75" font-family="Helvetica,Arial,sans-serif" font-size="11.00" fill="white">1</text>
</g>
<!-- n0 -->
<g id="node3" class="node">
<title>n0</title>
<path fill="#3a7ebf" stroke="black" d="M1240.35,-265.4C1240.35,-265.4 1091.55,-265.4 1091.55,-265.4 1085.55,-265.4 1079.55,-259.4 1079.55,-253.4 1079.55,-253.4 1079.55,-227 1079.55,-227 1079.55,-221 1085.55,-215 1091.55,-215 1091.55,-215 1240.35,-215 1240.35,-215 1246.35,-215 1252.35,-221 1252.35,-227 1252.35,-227 1252.35,-253.4 1252.35,-253.4 1252.35,-259.4 1246.35,-265.4 1240.35,-265.4"/>
<text xml:space="preserve" text-anchor="start" x="1129.57" y="-245.75" font-family="Helvetica,Arial,sans-serif" font-weight="bold" font-size="11.00" fill="white">Plastic broom</text>
<text xml:space="preserve" text-anchor="start" x="1154.32" y="-236.65" font-family="Helvetica,Arial,sans-serif" font-size="9.00" fill="#888888">[GLO]</text>
<text xml:space="preserve" text-anchor="start" x="1107.07" y="-226.7" font-family="Helvetica,Arial,sans-serif" font-size="10.00" fill="white">1.747 kg CO2&#45;Eq (100.0%)</text>
</g>
<!-- n0&#45;&gt;n -->
<g id="edge1" class="edge">
<title>n0&#45;&gt;n</title>
<path fill="none" stroke="#555555" d="M1252.65,-240.2C1270.38,-240.2 1288.09,-240.2 1302.7,-240.2"/>
<polygon fill="#555555" stroke="#555555" points="1302.4,-242.65 1309.4,-240.2 1302.4,-237.75 1302.4,-242.65"/>
</g>
<!-- n1 -->
<g id="node4" class="node">
<title>n1</title>
<path fill="#f0f4fa" stroke="black" d="M983.9,-308.4C983.9,-308.4 835.1,-308.4 835.1,-308.4 829.1,-308.4 823.1,-302.4 823.1,-296.4 823.1,-296.4 823.1,-270 823.1,-270 823.1,-264 829.1,-258 835.1,-258 835.1,-258 983.9,-258 983.9,-258 989.9,-258 995.9,-264 995.9,-270 995.9,-270 995.9,-296.4 995.9,-296.4 995.9,-302.4 989.9,-308.4 983.9,-308.4"/>
<text xml:space="preserve" text-anchor="start" x="867.12" y="-288.75" font-family="Helvetica,Arial,sans-serif" font-weight="bold" font-size="11.00" fill="#333333">Nylon 6, at plant</text>
<text xml:space="preserve" text-anchor="start" x="897.5" y="-279.65" font-family="Helvetica,Arial,sans-serif" font-size="9.00" fill="#888888">[RER]</text>
<text xml:space="preserve" text-anchor="start" x="853.25" y="-269.7" font-family="Helvetica,Arial,sans-serif" font-size="10.00" fill="#333333">0.295 kg CO2&#45;Eq (16.9%)</text>
</g>
<!-- n1&#45;&gt;n0 -->
<g id="edge2" class="edge">
<title>n1&#45;&gt;n0</title>
<path fill="none" stroke="#555555" d="M996.29,-268.7C1020.27,-264.65 1046.46,-260.22 1070.89,-256.1"/>
<polygon fill="#555555" stroke="#555555" points="1071.11,-258.54 1077.61,-254.96 1070.3,-253.71 1071.11,-258.54"/>
<text xml:space="preserve" text-anchor="middle" x="1041.17" y="-263.45" font-family="Helvetica,Arial,sans-serif" font-size="10.00">0.03</text>
</g>
<!-- n2 -->
<g id="node5" class="node">
<title>n2</title>
<path fill="#f0f4fa" stroke="black" d="M990.8,-222.4C990.8,-222.4 828.2,-222.4 828.2,-222.4 822.2,-222.4 816.2,-216.4 816.2,-210.4 816.2,-210.4 816.2,-184 816.2,-184 816.2,-178 822.2,-172 828.2,-172 828.2,-172 990.8,-172 990.8,-172 996.8,-172 1002.8,-178 1002.8,-184 1002.8,-184 1002.8,-210.4 1002.8,-210.4 1002.8,-216.4 996.8,-222.4 990.8,-222.4"/>
<text xml:space="preserve" text-anchor="start" x="827" y="-202.75" font-family="Helvetica,Arial,sans-serif" font-weight="bold" font-size="11.00" fill="#333333">Polylactide, granulate, at\nplant</text>
<text xml:space="preserve" text-anchor="start" x="897.88" y="-193.65" font-family="Helvetica,Arial,sans-serif" font-size="9.00" fill="#888888">[GLO]</text>
<text xml:space="preserve" text-anchor="start" x="853.25" y="-183.7" font-family="Helvetica,Arial,sans-serif" font-size="10.00" fill="#333333">1.452 kg CO2&#45;Eq (83.1%)</text>
</g>
<!-- n2&#45;&gt;n0 -->
<g id="edge3" class="edge">
<title>n2&#45;&gt;n0</title>
<path fill="none" stroke="#555555" d="M1003.08,-212.85C1025.23,-216.59 1048.89,-220.59 1071.1,-224.34"/>
<polygon fill="#555555" stroke="#555555" points="1070.4,-226.71 1077.71,-225.46 1071.22,-221.88 1070.4,-226.71"/>
<text xml:space="preserve" text-anchor="middle" x="1041.17" y="-221.74" font-family="Helvetica,Arial,sans-serif" font-size="10.00">0.52</text>
</g>
<!-- n3 -->
<g id="node6" class="node">
<title>n3</title>
<path fill="#f0f4fa" stroke="black" d="M669.32,-394.4C669.32,-394.4 469.97,-394.4 469.97,-394.4 463.97,-394.4 457.97,-388.4 457.97,-382.4 457.97,-382.4 457.97,-356 457.97,-356 457.97,-350 463.97,-344 469.97,-344 469.97,-344 669.32,-344 669.32,-344 675.32,-344 681.32,-350 681.32,-356 681.32,-356 681.32,-382.4 681.32,-382.4 681.32,-388.4 675.32,-394.4 669.32,-394.4"/>
<text xml:space="preserve" text-anchor="start" x="468.77" y="-374.75" font-family="Helvetica,Arial,sans-serif" font-weight="bold" font-size="11.00" fill="#333333">Transport, freight, lorry,\nfleet average</text>
<text xml:space="preserve" text-anchor="start" x="557.65" y="-365.65" font-family="Helvetica,Arial,sans-serif" font-size="9.00" fill="#888888">[RER]</text>
<text xml:space="preserve" text-anchor="start" x="516.02" y="-355.7" font-family="Helvetica,Arial,sans-serif" font-size="10.00" fill="#333333">0.020 kg CO2&#45;Eq (1.2%)</text>
</g>
<!-- n3&#45;&gt;n2 -->
<g id="edge4" class="edge">
<title>n3&#45;&gt;n2</title>
<path fill="none" stroke="#555555" d="M681.56,-343.67C695.13,-338.75 708.49,-332.97 720.7,-326.2 770.66,-298.51 768.57,-271.72 816.2,-240.2 823.54,-235.35 831.51,-230.75 839.59,-226.5"/>
<polygon fill="#555555" stroke="#555555" points="840.57,-228.76 845.68,-223.39 838.34,-224.4 840.57,-228.76"/>
<text xml:space="preserve" text-anchor="middle" x="768.45" y="-306.44" font-family="Helvetica,Arial,sans-serif" font-size="10.00">0.104</text>
</g>
<!-- n4 -->
<g id="node7" class="node">
<title>n4</title>
<path fill="#f0f4fa" stroke="black" d="M697.07,-308.4C697.07,-308.4 442.22,-308.4 442.22,-308.4 436.22,-308.4 430.22,-302.4 430.22,-296.4 430.22,-296.4 430.22,-270 430.22,-270 430.22,-264 436.22,-258 442.22,-258 442.22,-258 697.07,-258 697.07,-258 703.07,-258 709.07,-264 709.07,-270 709.07,-270 709.07,-296.4 709.07,-296.4 709.07,-302.4 703.07,-308.4 697.07,-308.4"/>
<text xml:space="preserve" text-anchor="start" x="441.02" y="-288.75" font-family="Helvetica,Arial,sans-serif" font-weight="bold" font-size="11.00" fill="#333333">Natural gas, burned in\nindustrial furnace 1MWth</text>
<text xml:space="preserve" text-anchor="start" x="560.65" y="-279.65" font-family="Helvetica,Arial,sans-serif" font-size="9.00" fill="#888888">[CH]</text>
<text xml:space="preserve" text-anchor="start" x="513.4" y="-269.7" font-family="Helvetica,Arial,sans-serif" font-size="10.00" fill="#333333">0.749 kg CO2&#45;Eq (42.9%)</text>
</g>
<!-- n4&#45;&gt;n2 -->
<g id="edge5" class="edge">
<title>n4&#45;&gt;n2</title>
<path fill="none" stroke="#555555" d="M671.56,-257.51C714.58,-246.56 764.66,-233.81 807.67,-222.87"/>
<polygon fill="#555555" stroke="#555555" points="808.25,-225.25 814.43,-221.15 807.04,-220.5 808.25,-225.25"/>
<text xml:space="preserve" text-anchor="middle" x="768.45" y="-239.37" font-family="Helvetica,Arial,sans-serif" font-size="10.00">9.6</text>
</g>
<!-- n5 -->
<g id="node8" class="node">
<title>n5</title>
<path fill="#f0f4fa" stroke="black" d="M644.05,-222.4C644.05,-222.4 495.25,-222.4 495.25,-222.4 489.25,-222.4 483.25,-216.4 483.25,-210.4 483.25,-210.4 483.25,-184 483.25,-184 483.25,-178 489.25,-172 495.25,-172 495.25,-172 644.05,-172 644.05,-172 650.05,-172 656.05,-178 656.05,-184 656.05,-184 656.05,-210.4 656.05,-210.4 656.05,-216.4 650.05,-222.4 644.05,-222.4"/>
<text xml:space="preserve" text-anchor="start" x="535.15" y="-202.75" font-family="Helvetica,Arial,sans-serif" font-weight="bold" font-size="11.00" fill="#333333">Corn, at farm</text>
<text xml:space="preserve" text-anchor="start" x="561.02" y="-193.65" font-family="Helvetica,Arial,sans-serif" font-size="9.00" fill="#888888">[US]</text>
<text xml:space="preserve" text-anchor="start" x="513.4" y="-183.7" font-family="Helvetica,Arial,sans-serif" font-size="10.00" fill="#333333">0.354 kg CO2&#45;Eq (20.3%)</text>
</g>
<!-- n5&#45;&gt;n2 -->
<g id="edge6" class="edge">
<title>n5&#45;&gt;n2</title>
<path fill="none" stroke="#555555" d="M656.34,-197.2C702.36,-197.2 759.36,-197.2 807.52,-197.2"/>
<polygon fill="#555555" stroke="#555555" points="807.27,-199.65 814.27,-197.2 807.27,-194.75 807.27,-199.65"/>
<text xml:space="preserve" text-anchor="middle" x="768.45" y="-198.95" font-family="Helvetica,Arial,sans-serif" font-size="10.00">0.784</text>
</g>
<!-- n6 -->
<g id="node9" class="node">
<title>n6</title>
<path fill="#f0f4fa" stroke="black" d="M644.05,-136.4C644.05,-136.4 495.25,-136.4 495.25,-136.4 489.25,-136.4 483.25,-130.4 483.25,-124.4 483.25,-124.4 483.25,-98 483.25,-98 483.25,-92 489.25,-86 495.25,-86 495.25,-86 644.05,-86 644.05,-86 650.05,-86 656.05,-92 656.05,-98 656.05,-98 656.05,-124.4 656.05,-124.4 656.05,-130.4 650.05,-136.4 644.05,-136.4"/>
<text xml:space="preserve" text-anchor="start" x="504.77" y="-116.75" font-family="Helvetica,Arial,sans-serif" font-weight="bold" font-size="11.00" fill="#333333">Chemical plant, organics</text>
<text xml:space="preserve" text-anchor="start" x="557.65" y="-107.65" font-family="Helvetica,Arial,sans-serif" font-size="9.00" fill="#888888">[RER]</text>
<text xml:space="preserve" text-anchor="start" x="516.02" y="-97.7" font-family="Helvetica,Arial,sans-serif" font-size="10.00" fill="#333333">0.021 kg CO2&#45;Eq (1.2%)</text>
</g>
<!-- n6&#45;&gt;n2 -->
<g id="edge7" class="edge">
<title>n6&#45;&gt;n2</title>
<path fill="none" stroke="#555555" d="M656.34,-133.01C702.45,-144.75 759.59,-159.3 807.81,-171.57"/>
<polygon fill="#555555" stroke="#555555" points="806.93,-173.87 814.32,-173.23 808.14,-169.12 806.93,-173.87"/>
<text xml:space="preserve" text-anchor="middle" x="768.45" y="-166.18" font-family="Helvetica,Arial,sans-serif" font-size="10.00">2.08e&#45;10</text>
</g>
<!-- n7 -->
<g id="node10" class="node">
<title>n7</title>
<path fill="#f0f4fa" stroke="black" d="M708.7,-50.4C708.7,-50.4 430.6,-50.4 430.6,-50.4 424.6,-50.4 418.6,-44.4 418.6,-38.4 418.6,-38.4 418.6,-12 418.6,-12 418.6,-6 424.6,0 430.6,0 430.6,0 708.7,0 708.7,0 714.7,0 720.7,-6 720.7,-12 720.7,-12 720.7,-38.4 720.7,-38.4 720.7,-44.4 714.7,-50.4 708.7,-50.4"/>
<text xml:space="preserve" text-anchor="start" x="429.4" y="-30.75" font-family="Helvetica,Arial,sans-serif" font-weight="bold" font-size="11.00" fill="#333333">Electricity, low voltage,\nproduction ENTSO&#45;E, at grid</text>
<text xml:space="preserve" text-anchor="start" x="547.52" y="-21.65" font-family="Helvetica,Arial,sans-serif" font-size="9.00" fill="#888888">[ENTSO&#45;E]</text>
<text xml:space="preserve" text-anchor="start" x="513.4" y="-11.7" font-family="Helvetica,Arial,sans-serif" font-size="10.00" fill="#333333">0.283 kg CO2&#45;Eq (16.2%)</text>
</g>
<!-- n7&#45;&gt;n2 -->
<g id="edge8" class="edge">
<title>n7&#45;&gt;n2</title>
<path fill="none" stroke="#555555" d="M676.37,-50.81C691.54,-55.83 706.73,-61.61 720.7,-68.2 777.12,-94.79 835.29,-137.57 871.64,-166.5"/>
<polygon fill="#555555" stroke="#555555" points="870,-168.32 876.99,-170.79 873.06,-164.5 870,-168.32"/>
<text xml:space="preserve" text-anchor="middle" x="768.45" y="-106.63" font-family="Helvetica,Arial,sans-serif" font-size="10.00">0.951</text>
</g>
<!-- n8 -->
<g id="node11" class="node">
<title>n8</title>
<path fill="#f0f4fa" stroke="black" d="M267.6,-394.4C267.6,-394.4 58.5,-394.4 58.5,-394.4 52.5,-394.4 46.5,-388.4 46.5,-382.4 46.5,-382.4 46.5,-356 46.5,-356 46.5,-350 52.5,-344 58.5,-344 58.5,-344 267.6,-344 267.6,-344 273.6,-344 279.6,-350 279.6,-356 279.6,-356 279.6,-382.4 279.6,-382.4 279.6,-388.4 273.6,-394.4 267.6,-394.4"/>
<text xml:space="preserve" text-anchor="start" x="57.3" y="-374.75" font-family="Helvetica,Arial,sans-serif" font-weight="bold" font-size="11.00" fill="#333333">Natural gas, low pressure, at\nconsumer</text>
<text xml:space="preserve" text-anchor="start" x="154.05" y="-365.65" font-family="Helvetica,Arial,sans-serif" font-size="9.00" fill="#888888">[CH]</text>
<text xml:space="preserve" text-anchor="start" x="106.8" y="-355.7" font-family="Helvetica,Arial,sans-serif" font-size="10.00" fill="#333333">0.207 kg CO2&#45;Eq (11.9%)</text>
</g>
<!-- n8&#45;&gt;n4 -->
<g id="edge9" class="edge">
<title>n8&#45;&gt;n4</title>
<path fill="none" stroke="#555555" d="M279.99,-344.56C329.86,-333.96 388.36,-321.52 439.6,-310.63"/>
<polygon fill="#555555" stroke="#555555" points="439.94,-313.06 446.28,-309.21 438.92,-308.27 439.94,-313.06"/>
<text xml:space="preserve" text-anchor="middle" x="372.35" y="-327.95" font-family="Helvetica,Arial,sans-serif" font-size="10.00">9.6</text>
</g>
<!-- n9 -->
<g id="node12" class="node">
<title>n9</title>
<path fill="#f0f4fa" stroke="black" d="M261.6,-308.4C261.6,-308.4 64.5,-308.4 64.5,-308.4 58.5,-308.4 52.5,-302.4 52.5,-296.4 52.5,-296.4 52.5,-270 52.5,-270 52.5,-264 58.5,-258 64.5,-258 64.5,-258 261.6,-258 261.6,-258 267.6,-258 273.6,-264 273.6,-270 273.6,-270 273.6,-296.4 273.6,-296.4 273.6,-302.4 267.6,-308.4 261.6,-308.4"/>
<text xml:space="preserve" text-anchor="start" x="63.3" y="-288.75" font-family="Helvetica,Arial,sans-serif" font-weight="bold" font-size="11.00" fill="#333333">Maize seed IP, at regional\nstorehouse</text>
<text xml:space="preserve" text-anchor="start" x="154.05" y="-279.65" font-family="Helvetica,Arial,sans-serif" font-size="9.00" fill="#888888">[CH]</text>
<text xml:space="preserve" text-anchor="start" x="109.42" y="-269.7" font-family="Helvetica,Arial,sans-serif" font-size="10.00" fill="#333333">0.034 kg CO2&#45;Eq (1.9%)</text>
</g>
<!-- n9&#45;&gt;n5 -->
<g id="edge10" class="edge">
<title>n9&#45;&gt;n5</title>
<path fill="none" stroke="#555555" d="M274.07,-259.81C337,-246.44 415.1,-229.84 475.06,-217.09"/>
<polygon fill="#555555" stroke="#555555" points="475.21,-219.57 481.54,-215.72 474.19,-214.77 475.21,-219.57"/>
<text xml:space="preserve" text-anchor="middle" x="372.35" y="-241.95" font-family="Helvetica,Arial,sans-serif" font-size="10.00">0.0168</text>
</g>
<!-- n10 -->
<g id="node13" class="node">
<title>n10</title>
<path fill="#f0f4fa" stroke="black" d="M290.47,-222.4C290.47,-222.4 35.62,-222.4 35.62,-222.4 29.62,-222.4 23.62,-216.4 23.62,-210.4 23.62,-210.4 23.62,-184 23.62,-184 23.62,-178 29.62,-172 35.62,-172 35.62,-172 290.47,-172 290.47,-172 296.47,-172 302.47,-178 302.47,-184 302.47,-184 302.47,-210.4 302.47,-210.4 302.47,-216.4 296.47,-222.4 290.47,-222.4"/>
<text xml:space="preserve" text-anchor="start" x="34.42" y="-202.75" font-family="Helvetica,Arial,sans-serif" font-weight="bold" font-size="11.00" fill="#333333">Ammonium nitrate, as N, at\nregional storehouse</text>
<text xml:space="preserve" text-anchor="start" x="151.05" y="-193.65" font-family="Helvetica,Arial,sans-serif" font-size="9.00" fill="#888888">[RER]</text>
<text xml:space="preserve" text-anchor="start" x="109.42" y="-183.7" font-family="Helvetica,Arial,sans-serif" font-size="10.00" fill="#333333">0.034 kg CO2&#45;Eq (1.9%)</text>
</g>
<!-- n10&#45;&gt;n5 -->
<g id="edge11" class="edge">
<title>n10&#45;&gt;n5</title>
<path fill="none" stroke="#555555" d="M302.72,-197.2C359.39,-197.2 423.47,-197.2 474.53,-197.2"/>
<polygon fill="#555555" stroke="#555555" points="474.42,-199.65 481.42,-197.2 474.42,-194.75 474.42,-199.65"/>
<text xml:space="preserve" text-anchor="middle" x="372.35" y="-198.95" font-family="Helvetica,Arial,sans-serif" font-size="10.00">0.00383</text>
</g>
<!-- n11 -->
<g id="node14" class="node">
<title>n11</title>
<path fill="#f0f4fa" stroke="black" d="M237.45,-136.4C237.45,-136.4 88.65,-136.4 88.65,-136.4 82.65,-136.4 76.65,-130.4 76.65,-124.4 76.65,-124.4 76.65,-98 76.65,-98 76.65,-92 82.65,-86 88.65,-86 88.65,-86 237.45,-86 237.45,-86 243.45,-86 249.45,-92 249.45,-98 249.45,-98 249.45,-124.4 249.45,-124.4 249.45,-130.4 243.45,-136.4 237.45,-136.4"/>
<text xml:space="preserve" text-anchor="start" x="130.05" y="-116.75" font-family="Helvetica,Arial,sans-serif" font-weight="bold" font-size="11.00" fill="#333333">Maize drying</text>
<text xml:space="preserve" text-anchor="start" x="154.05" y="-107.65" font-family="Helvetica,Arial,sans-serif" font-size="9.00" fill="#888888">[CH]</text>
<text xml:space="preserve" text-anchor="start" x="109.42" y="-97.7" font-family="Helvetica,Arial,sans-serif" font-size="10.00" fill="#333333">0.096 kg CO2&#45;Eq (5.5%)</text>
</g>
<!-- n11&#45;&gt;n5 -->
<g id="edge12" class="edge">
<title>n11&#45;&gt;n5</title>
<path fill="none" stroke="#555555" d="M249.86,-129.44C315.84,-143.46 406.89,-162.82 474.8,-177.25"/>
<polygon fill="#555555" stroke="#555555" points="474.13,-179.61 481.49,-178.67 475.15,-174.82 474.13,-179.61"/>
<text xml:space="preserve" text-anchor="middle" x="372.35" y="-158.53" font-family="Helvetica,Arial,sans-serif" font-size="10.00">0.321</text>
</g>
<!-- n12 -->
<g id="node15" class="node">
<title>n12</title>
<path fill="#f0f4fa" stroke="black" d="M314.1,-50.4C314.1,-50.4 12,-50.4 12,-50.4 6,-50.4 0,-44.4 0,-38.4 0,-38.4 0,-12 0,-12 0,-6 6,0 12,0 12,0 314.1,0 314.1,0 320.1,0 326.1,-6 326.1,-12 326.1,-12 326.1,-38.4 326.1,-38.4 326.1,-44.4 320.1,-50.4 314.1,-50.4"/>
<text xml:space="preserve" text-anchor="start" x="10.8" y="-30.75" font-family="Helvetica,Arial,sans-serif" font-weight="bold" font-size="11.00" fill="#333333">Electricity, medium voltage,\nproduction ENTSO&#45;E, at grid</text>
<text xml:space="preserve" text-anchor="start" x="140.92" y="-21.65" font-family="Helvetica,Arial,sans-serif" font-size="9.00" fill="#888888">[ENTSO&#45;E]</text>
<text xml:space="preserve" text-anchor="start" x="106.8" y="-11.7" font-family="Helvetica,Arial,sans-serif" font-size="10.00" fill="#333333">0.280 kg CO2&#45;Eq (16.1%)</text>
</g>
<!-- n12&#45;&gt;n7 -->
<g id="edge13" class="edge">
<title>n12&#45;&gt;n7</title>
<path fill="none" stroke="#555555" d="M326.58,-25.2C354.05,-25.2 382.55,-25.2 409.93,-25.2"/>
<polygon fill="#555555" stroke="#555555" points="409.88,-27.65 416.88,-25.2 409.88,-22.75 409.88,-27.65"/>
<text xml:space="preserve" text-anchor="middle" x="372.35" y="-26.95" font-family="Helvetica,Arial,sans-serif" font-size="10.00">1</text>
</g>
</g>
</svg>
