<?xml version="1.0" encoding="UTF-8" standalone="no"?>
<!DOCTYPE svg PUBLIC "-//W3C//DTD SVG 1.1//EN"
 "http://www.w3.org/Graphics/SVG/1.1/DTD/svg11.dtd">
<!-- Generated by graphviz version 15.0.0 (20260523.1842)
 -->
<!-- Title: G Pages: 1 -->
<svg width="1692pt" height="487pt"
 viewBox="0.00 0.00 1692.00 487.00" xmlns="http://www.w3.org/2000/svg" xmlns:xlink="http://www.w3.org/1999/xlink">
<g id="graph0" class="graph" transform="scale(1 1) rotate(0) translate(28.8 458.2)">
<title>G</title>
<polygon fill="white" stroke="none" points="-28.8,28.8 -28.8,-458.2 1663.3,-458.2 1663.3,28.8 -28.8,28.8"/>
<text xml:space="preserve" text-anchor="middle" x="817.25" y="-413.05" font-family="Helvetica,Arial,sans-serif" font-size="13.00">Plastic broom [GLO]</text>
<text xml:space="preserve" text-anchor="middle" x="817.25" y="-399.55" font-family="Helvetica,Arial,sans-serif" font-size="13.00">climate change (global warming potential (GWP100)) &#160;| &#160;Total: 1.7090 kg CO2&#45;Eq</text>
<!-- n_1 -->
<g id="node1" class="node">
<title>n_1</title>
<path fill="#7b4ea6" stroke="black" d="M1622.5,-308.4C1622.5,-308.4 1488.1,-308.4 1488.1,-308.4 1482.1,-308.4 1476.1,-302.4 1476.1,-296.4 1476.1,-296.4 1476.1,-270 1476.1,-270 1476.1,-264 1482.1,-258 1488.1,-258 1488.1,-258 1622.5,-258 1622.5,-258 1628.5,-258 1634.5,-264 1634.5,-270 1634.5,-270 1634.5,-296.4 1634.5,-296.4 1634.5,-302.4 1628.5,-308.4 1622.5,-308.4"/>
<text xml:space="preserve" text-anchor="start" x="1515.17" y="-289.25" font-family="Helvetica,Arial,sans-serif" font-weight="bold" font-size="11.00" fill="white">Functional Unit</text>
<text xml:space="preserve" text-anchor="start" x="1516.67" y="-279.2" font-family="Helvetica,Arial,sans-serif" font-size="10.00" fill="white">1 × Plastic broom</text>
<text xml:space="preserve" text-anchor="start" x="1516.67" y="-269.2" font-family="Helvetica,Arial,sans-serif" font-weight="bold" font-size="10.00" fill="white">1.709 kg CO2&#45;Eq</text>
</g>
<!-- n0 -->
<g id="node2" class="node">
<title>n0</title>
<path fill="#3a7ebf" stroke="black" d="M1400.85,-308.4C1400.85,-308.4 1252.05,-308.4 1252.05,-308.4 1246.05,-308.4 1240.05,-302.4 1240.05,-296.4 1240.05,-296.4 1240.05,-270 1240.05,-270 1240.05,-264 1246.05,-258 1252.05,-258 1252.05,-258 1400.85,-258 1400.85,-258 1406.85,-258 1412.85,-264 1412.85,-270 1412.85,-270 1412.85,-296.4 1412.85,-296.4 1412.85,-302.4 1406.85,-308.4 1400.85,-308.4"/>
<text xml:space="preserve" text-anchor="start" x="1290.07" y="-288.75" font-family="Helvetica,Arial,sans-serif" font-weight="bold" font-size="11.00" fill="white">Plastic broom</text>
<text xml:space="preserve" text-anchor="start" x="1314.82" y="-279.65" font-family="Helvetica,Arial,sans-serif" font-size="9.00" fill="#888888">[GLO]</text>
<text xml:space="preserve" text-anchor="start" x="1267.57" y="-269.7" font-family="Helvetica,Arial,sans-serif" font-size="10.00" fill="white">1.709 kg CO2&#45;Eq (100.0%)</text>
</g>
<!-- n0&#45;&gt;n_1 -->
<g id="edge1" class="edge">
<title>n0&#45;&gt;n_1</title>
<path fill="none" stroke="#555555" d="M1413.21,-283.2C1431.06,-283.2 1449.87,-283.2 1467.75,-283.2"/>
<polygon fill="#555555" stroke="#555555" points="1467.37,-285.65 1474.37,-283.2 1467.37,-280.75 1467.37,-285.65"/>
<text xml:space="preserve" text-anchor="middle" x="1444.47" y="-284.95" font-family="Helvetica,Arial,sans-serif" font-size="10.00">1</text>
</g>
<!-- n1 -->
<g id="node3" class="node">
<title>n1</title>
<path fill="#f0f4fa" stroke="black" d="M1061.52,-394.4C1061.52,-394.4 912.72,-394.4 912.72,-394.4 906.72,-394.4 900.72,-388.4 900.72,-382.4 900.72,-382.4 900.72,-356 900.72,-356 900.72,-350 906.72,-344 912.72,-344 912.72,-344 1061.52,-344 1061.52,-344 1067.52,-344 1073.52,-350 1073.52,-356 1073.52,-356 1073.52,-382.4 1073.52,-382.4 1073.52,-388.4 1067.52,-394.4 1061.52,-394.4"/>
<text xml:space="preserve" text-anchor="start" x="944.75" y="-374.75" font-family="Helvetica,Arial,sans-serif" font-weight="bold" font-size="11.00" fill="#333333">Nylon 6, at plant</text>
<text xml:space="preserve" text-anchor="start" x="975.12" y="-365.65" font-family="Helvetica,Arial,sans-serif" font-size="9.00" fill="#888888">[RER]</text>
<text xml:space="preserve" text-anchor="start" x="930.87" y="-355.7" font-family="Helvetica,Arial,sans-serif" font-size="10.00" fill="#333333">0.278 kg CO2&#45;Eq (16.3%)</text>
</g>
<!-- n1&#45;&gt;n0 -->
<g id="edge2" class="edge">
<title>n1&#45;&gt;n0</title>
<path fill="none" stroke="#555555" d="M1073.71,-347.61C1100.7,-340.78 1130.63,-333.19 1158.05,-326.2 1181.95,-320.11 1207.77,-313.49 1231.8,-307.32"/>
<polygon fill="#555555" stroke="#555555" points="1232.24,-309.74 1238.41,-305.62 1231.02,-304.99 1232.24,-309.74"/>
<text xml:space="preserve" text-anchor="middle" x="1199.05" y="-319.76" font-family="Helvetica,Arial,sans-serif" font-size="10.00">0.03</text>
</g>
<!-- n2 -->
<g id="node4" class="node">
<title>n2</title>
<path fill="#f0f4fa" stroke="black" d="M1146.05,-308.4C1146.05,-308.4 828.2,-308.4 828.2,-308.4 822.2,-308.4 816.2,-302.4 816.2,-296.4 816.2,-296.4 816.2,-270 816.2,-270 816.2,-264 822.2,-258 828.2,-258 828.2,-258 1146.05,-258 1146.05,-258 1152.05,-258 1158.05,-264 1158.05,-270 1158.05,-270 1158.05,-296.4 1158.05,-296.4 1158.05,-302.4 1152.05,-308.4 1146.05,-308.4"/>
<text xml:space="preserve" text-anchor="start" x="827" y="-288.75" font-family="Helvetica,Arial,sans-serif" font-weight="bold" font-size="11.00" fill="#333333">Transport, freight, lorry,\n16t&#45;32t gross weight, fleet\naverage</text>
<text xml:space="preserve" text-anchor="start" x="975.12" y="-279.65" font-family="Helvetica,Arial,sans-serif" font-size="9.00" fill="#888888">[RER]</text>
<text xml:space="preserve" text-anchor="start" x="933.5" y="-269.7" font-family="Helvetica,Arial,sans-serif" font-size="10.00" fill="#333333">0.023 kg CO2&#45;Eq (1.4%)</text>
</g>
<!-- n2&#45;&gt;n0 -->
<g id="edge3" class="edge">
<title>n2&#45;&gt;n0</title>
<path fill="none" stroke="#555555" d="M1158.27,-283.2C1183.5,-283.2 1208.68,-283.2 1231.56,-283.2"/>
<polygon fill="#555555" stroke="#555555" points="1231.37,-285.65 1238.37,-283.2 1231.37,-280.75 1231.37,-285.65"/>
<text xml:space="preserve" text-anchor="middle" x="1199.05" y="-284.95" font-family="Helvetica,Arial,sans-serif" font-size="10.00">0.106</text>
</g>
<!-- n3 -->
<g id="node5" class="node">
<title>n3</title>
<path fill="#f0f4fa" stroke="black" d="M1068.42,-222.4C1068.42,-222.4 905.82,-222.4 905.82,-222.4 899.82,-222.4 893.82,-216.4 893.82,-210.4 893.82,-210.4 893.82,-184 893.82,-184 893.82,-178 899.82,-172 905.82,-172 905.82,-172 1068.42,-172 1068.42,-172 1074.42,-172 1080.42,-178 1080.42,-184 1080.42,-184 1080.42,-210.4 1080.42,-210.4 1080.42,-216.4 1074.42,-222.4 1068.42,-222.4"/>
<text xml:space="preserve" text-anchor="start" x="904.62" y="-202.75" font-family="Helvetica,Arial,sans-serif" font-weight="bold" font-size="11.00" fill="#333333">Polylactide, granulate, at\nplant</text>
<text xml:space="preserve" text-anchor="start" x="975.5" y="-193.65" font-family="Helvetica,Arial,sans-serif" font-size="9.00" fill="#888888">[GLO]</text>
<text xml:space="preserve" text-anchor="start" x="930.87" y="-183.7" font-family="Helvetica,Arial,sans-serif" font-size="10.00" fill="#333333">1.407 kg CO2&#45;Eq (82.4%)</text>
</g>
<!-- n3&#45;&gt;n0 -->
<g id="edge4" class="edge">
<title>n3&#45;&gt;n0</title>
<path fill="none" stroke="#555555" d="M1080.74,-220.57C1105.83,-226.92 1132.99,-233.81 1158.05,-240.2 1181.95,-246.29 1207.77,-252.91 1231.8,-259.08"/>
<polygon fill="#555555" stroke="#555555" points="1231.02,-261.41 1238.41,-260.78 1232.24,-256.66 1231.02,-261.41"/>
<text xml:space="preserve" text-anchor="middle" x="1199.05" y="-254.9" font-family="Helvetica,Arial,sans-serif" font-size="10.00">0.52</text>
</g>
<!-- n4 -->
<g id="node6" class="node">
<title>n4</title>
<path fill="#f0f4fa" stroke="black" d="M669.32,-394.4C669.32,-394.4 469.97,-394.4 469.97,-394.4 463.97,-394.4 457.97,-388.4 457.97,-382.4 457.97,-382.4 457.97,-356 457.97,-356 457.97,-350 463.97,-344 469.97,-344 469.97,-344 669.32,-344 669.32,-344 675.32,-344 681.32,-350 681.32,-356 681.32,-356 681.32,-382.4 681.32,-382.4 681.32,-388.4 675.32,-394.4 669.32,-394.4"/>
<text xml:space="preserve" text-anchor="start" x="468.77" y="-374.75" font-family="Helvetica,Arial,sans-serif" font-weight="bold" font-size="11.00" fill="#333333">Transport, freight, lorry,\nfleet average</text>
<text xml:space="preserve" text-anchor="start" x="557.65" y="-365.65" font-family="Helvetica,Arial,sans-serif" font-size="9.00" fill="#888888">[RER]</text>
<text xml:space="preserve" text-anchor="start" x="516.02" y="-355.7" font-family="Helvetica,Arial,sans-serif" font-size="10.00" fill="#333333">0.020 kg CO2&#45;Eq (1.1%)</text>
</g>
<!-- n4&#45;&gt;n3 -->
<g id="edge5" class="edge">
<title>n4&#45;&gt;n3</title>
<path fill="none" stroke="#555555" d="M681.56,-343.67C695.13,-338.75 708.49,-332.97 720.7,-326.2 733.19,-319.28 803.6,-246.93 816.2,-240.2 837.54,-228.8 862.02,-220.34 885.63,-214.08"/>
<polygon fill="#555555" stroke="#555555" points="885.95,-216.53 892.13,-212.42 884.74,-211.78 885.95,-216.53"/>
<text xml:space="preserve" text-anchor="middle" x="768.45" y="-301.15" font-family="Helvetica,Arial,sans-serif" font-size="10.00">0.104</text>
</g>
<!-- n5 -->
<g id="node7" class="node">
<title>n5</title>
<path fill="#f0f4fa" stroke="black" d="M697.07,-308.4C697.07,-308.4 442.22,-308.4 442.22,-308.4 436.22,-308.4 430.22,-302.4 430.22,-296.4 430.22,-296.4 430.22,-270 430.22,-270 430.22,-264 436.22,-258 442.22,-258 442.22,-258 697.07,-258 697.07,-258 703.07,-258 709.07,-264 709.07,-270 709.07,-270 709.07,-296.4 709.07,-296.4 709.07,-302.4 703.07,-308.4 697.07,-308.4"/>
<text xml:space="preserve" text-anchor="start" x="441.02" y="-288.75" font-family="Helvetica,Arial,sans-serif" font-weight="bold" font-size="11.00" fill="#333333">Natural gas, burned in\nindustrial furnace 1MWth</text>
<text xml:space="preserve" text-anchor="start" x="560.65" y="-279.65" font-family="Helvetica,Arial,sans-serif" font-size="9.00" fill="#888888">[CH]</text>
<text xml:space="preserve" text-anchor="start" x="513.4" y="-269.7" font-family="Helvetica,Arial,sans-serif" font-size="10.00" fill="#333333">0.732 kg CO2&#45;Eq (42.8%)</text>
</g>
<!-- n5&#45;&gt;n3 -->
<g id="edge6" class="edge">
<title>n5&#45;&gt;n3</title>
<path fill="none" stroke="#555555" d="M694.74,-257.51C755.6,-244.92 827.96,-229.94 885.35,-218.06"/>
<polygon fill="#555555" stroke="#555555" points="885.51,-220.53 891.86,-216.71 884.51,-215.73 885.51,-220.53"/>
<text xml:space="preserve" text-anchor="middle" x="768.45" y="-247.1" font-family="Helvetica,Arial,sans-serif" font-size="10.00">9.6</text>
</g>
<!-- n6 -->
<g id="node8" class="node">
<title>n6</title>
<path fill="#f0f4fa" stroke="black" d="M644.05,-222.4C644.05,-222.4 495.25,-222.4 495.25,-222.4 489.25,-222.4 483.25,-216.4 483.25,-210.4 483.25,-210.4 483.25,-184 483.25,-184 483.25,-178 489.25,-172 495.25,-172 495.25,-172 644.05,-172 644.05,-172 650.05,-172 656.05,-178 656.05,-184 656.05,-184 656.05,-210.4 656.05,-210.4 656.05,-216.4 650.05,-222.4 644.05,-222.4"/>
<text xml:space="preserve" text-anchor="start" x="535.15" y="-202.75" font-family="Helvetica,Arial,sans-serif" font-weight="bold" font-size="11.00" fill="#333333">Corn, at farm</text>
<text xml:space="preserve" text-anchor="start" x="561.02" y="-193.65" font-family="Helvetica,Arial,sans-serif" font-size="9.00" fill="#888888">[US]</text>
<text xml:space="preserve" text-anchor="start" x="513.4" y="-183.7" font-family="Helvetica,Arial,sans-serif" font-size="10.00" fill="#333333">0.335 kg CO2&#45;Eq (19.6%)</text>
</g>
<!-- n6&#45;&gt;n3 -->
<g id="edge7" class="edge">
<title>n6&#45;&gt;n3</title>
<path fill="none" stroke="#555555" d="M656.48,-197.2C722.93,-197.2 815.12,-197.2 885.12,-197.2"/>
<polygon fill="#555555" stroke="#555555" points="885.03,-199.65 892.03,-197.2 885.03,-194.75 885.03,-199.65"/>
<text xml:space="preserve" text-anchor="middle" x="768.45" y="-198.95" font-family="Helvetica,Arial,sans-serif" font-size="10.00">0.784</text>
</g>
<!-- n7 -->
<g id="node9" class="node">
<title>n7</title>
<path fill="#f0f4fa" stroke="black" d="M644.05,-136.4C644.05,-136.4 495.25,-136.4 495.25,-136.4 489.25,-136.4 483.25,-130.4 483.25,-124.4 483.25,-124.4 483.25,-98 483.25,-98 483.25,-92 489.25,-86 495.25,-86 495.25,-86 644.05,-86 644.05,-86 650.05,-86 656.05,-92 656.05,-98 656.05,-98 656.05,-124.4 656.05,-124.4 656.05,-130.4 650.05,-136.4 644.05,-136.4"/>
<text xml:space="preserve" text-anchor="start" x="504.77" y="-116.75" font-family="Helvetica,Arial,sans-serif" font-weight="bold" font-size="11.00" fill="#333333">Chemical plant, organics</text>
<text xml:space="preserve" text-anchor="start" x="557.65" y="-107.65" font-family="Helvetica,Arial,sans-serif" font-size="9.00" fill="#888888">[RER]</text>
<text xml:space="preserve" text-anchor="start" x="516.02" y="-97.7" font-family="Helvetica,Arial,sans-serif" font-size="10.00" fill="#333333">0.020 kg CO2&#45;Eq (1.2%)</text>
</g>
<!-- n7&#45;&gt;n3 -->
<g id="edge8" class="edge">
<title>n7&#45;&gt;n3</title>
<path fill="none" stroke="#555555" d="M656.48,-128.97C723.07,-142.75 815.5,-161.88 885.55,-176.38"/>
<polygon fill="#555555" stroke="#555555" points="884.71,-178.71 892.06,-177.73 885.7,-173.91 884.71,-178.71"/>
<text xml:space="preserve" text-anchor="middle" x="768.45" y="-155.95" font-family="Helvetica,Arial,sans-serif" font-size="10.00">2.08e&#45;10</text>
</g>
<!-- n8 -->
<g id="node10" class="node">
<title>n8</title>
<path fill="#f0f4fa" stroke="black" d="M708.7,-50.4C708.7,-50.4 430.6,-50.4 430.6,-50.4 424.6,-50.4 418.6,-44.4 418.6,-38.4 418.6,-38.4 418.6,-12 418.6,-12 418.6,-6 424.6,0 430.6,0 430.6,0 708.7,0 708.7,0 714.7,0 720.7,-6 720.7,-12 720.7,-12 720.7,-38.4 720.7,-38.4 720.7,-44.4 714.7,-50.4 708.7,-50.4"/>
<text xml:space="preserve" text-anchor="start" x="429.4" y="-30.75" font-family="Helvetica,Arial,sans-serif" font-weight="bold" font-size="11.00" fill="#333333">Electricity, low voltage,\nproduction ENTSO&#45;E, at grid</text>
<text xml:space="preserve" text-anchor="start" x="547.52" y="-21.65" font-family="Helvetica,Arial,sans-serif" font-size="9.00" fill="#888888">[ENTSO&#45;E]</text>
<text xml:space="preserve" text-anchor="start" x="513.4" y="-11.7" font-family="Helvetica,Arial,sans-serif" font-size="10.00" fill="#333333">0.277 kg CO2&#45;Eq (16.2%)</text>
</g>
<!-- n8&#45;&gt;n3 -->
<g id="edge9" class="edge">
<title>n8&#45;&gt;n3</title>
<path fill="none" stroke="#555555" d="M669.52,-50.89C686.75,-56.12 704.38,-61.95 720.7,-68.2 796.33,-97.16 879.75,-139.54 932.52,-167.72"/>
<polygon fill="#555555" stroke="#555555" points="931.09,-169.74 938.42,-170.89 933.41,-165.42 931.09,-169.74"/>
<text xml:space="preserve" text-anchor="middle" x="768.45" y="-94.69" font-family="Helvetica,Arial,sans-serif" font-size="10.00">0.951</text>
</g>
<!-- n9 -->
<g id="node11" class="node">
<title>n9</title>
<path fill="#f0f4fa" stroke="black" d="M267.6,-394.4C267.6,-394.4 58.5,-394.4 58.5,-394.4 52.5,-394.4 46.5,-388.4 46.5,-382.4 46.5,-382.4 46.5,-356 46.5,-356 46.5,-350 52.5,-344 58.5,-344 58.5,-344 267.6,-344 267.6,-344 273.6,-344 279.6,-350 279.6,-356 279.6,-356 279.6,-382.4 279.6,-382.4 279.6,-388.4 273.6,-394.4 267.6,-394.4"/>
<text xml:space="preserve" text-anchor="start" x="57.3" y="-374.75" font-family="Helvetica,Arial,sans-serif" font-weight="bold" font-size="11.00" fill="#333333">Natural gas, low pressure, at\nconsumer</text>
<text xml:space="preserve" text-anchor="start" x="154.05" y="-365.65" font-family="Helvetica,Arial,sans-serif" font-size="9.00" fill="#888888">[CH]</text>
<text xml:space="preserve" text-anchor="start" x="106.8" y="-355.7" font-family="Helvetica,Arial,sans-serif" font-size="10.00" fill="#333333">0.191 kg CO2&#45;Eq (11.2%)</text>
</g>
<!-- n9&#45;&gt;n5 -->
<g id="edge10" class="edge">
<title>n9&#45;&gt;n5</title>
<path fill="none" stroke="#555555" d="M279.99,-344.56C329.86,-333.96 388.36,-321.52 439.6,-310.63"/>
<polygon fill="#555555" stroke="#555555" points="439.94,-313.06 446.28,-309.21 438.92,-308.27 439.94,-313.06"/>
<text xml:space="preserve" text-anchor="middle" x="372.35" y="-327.95" font-family="Helvetica,Arial,sans-serif" font-size="10.00">9.6</text>
</g>
<!-- n10 -->
<g id="node12" class="node">
<title>n10</title>
<path fill="#f0f4fa" stroke="black" d="M261.6,-308.4C261.6,-308.4 64.5,-308.4 64.5,-308.4 58.5,-308.4 52.5,-302.4 52.5,-296.4 52.5,-296.4 52.5,-270 52.5,-270 52.5,-264 58.5,-258 64.5,-258 64.5,-258 261.6,-258 261.6,-258 267.6,-258 273.6,-264 273.6,-270 273.6,-270 273.6,-296.4 273.6,-296.4 273.6,-302.4 267.6,-308.4 261.6,-308.4"/>
<text xml:space="preserve" text-anchor="start" x="63.3" y="-288.75" font-family="Helvetica,Arial,sans-serif" font-weight="bold" font-size="11.00" fill="#333333">Maize seed IP, at regional\nstorehouse</text>
<text xml:space="preserve" text-anchor="start" x="154.05" y="-279.65" font-family="Helvetica,Arial,sans-serif" font-size="9.00" fill="#888888">[CH]</text>
<text xml:space="preserve" text-anchor="start" x="109.42" y="-269.7" font-family="Helvetica,Arial,sans-serif" font-size="10.00" fill="#333333">0.032 kg CO2&#45;Eq (1.9%)</text>
</g>
<!-- n10&#45;&gt;n6 -->
<g id="edge11" class="edge">
<title>n10&#45;&gt;n6</title>
<path fill="none" stroke="#555555" d="M274.07,-259.81C337,-246.44 415.1,-229.84 475.06,-217.09"/>
<polygon fill="#555555" stroke="#555555" points="475.21,-219.57 481.54,-215.72 474.19,-214.77 475.21,-219.57"/>
<text xml:space="preserve" text-anchor="middle" x="372.35" y="-241.95" font-family="Helvetica,Arial,sans-serif" font-size="10.00">0.0168</text>
</g>
<!-- n11 -->
<g id="node13" class="node">
<title>n11</title>
<path fill="#f0f4fa" stroke="black" d="M290.47,-222.4C290.47,-222.4 35.62,-222.4 35.62,-222.4 29.62,-222.4 23.62,-216.4 23.62,-210.4 23.62,-210.4 23.62,-184 23.62,-184 23.62,-178 29.62,-172 35.62,-172 35.62,-172 290.47,-172 290.47,-172 296.47,-172 302.47,-178 302.47,-184 302.47,-184 302.47,-210.4 302.47,-210.4 302.47,-216.4 296.47,-222.4 290.47,-222.4"/>
<text xml:space="preserve" text-anchor="start" x="34.42" y="-202.75" font-family="Helvetica,Arial,sans-serif" font-weight="bold" font-size="11.00" fill="#333333">Ammonium nitrate, as N, at\nregional storehouse</text>
<text xml:space="preserve" text-anchor="start" x="151.05" y="-193.65" font-family="Helvetica,Arial,sans-serif" font-size="9.00" fill="#888888">[RER]</text>
<text xml:space="preserve" text-anchor="start" x="109.42" y="-183.7" font-family="Helvetica,Arial,sans-serif" font-size="10.00" fill="#333333">0.031 kg CO2&#45;Eq (1.8%)</text>
</g>
<!-- n11&#45;&gt;n6 -->
<g id="edge12" class="edge">
<title>n11&#45;&gt;n6</title>
<path fill="none" stroke="#555555" d="M302.72,-197.2C359.39,-197.2 423.47,-197.2 474.53,-197.2"/>
<polygon fill="#555555" stroke="#555555" points="474.42,-199.65 481.42,-197.2 474.42,-194.75 474.42,-199.65"/>
<text xml:space="preserve" text-anchor="middle" x="372.35" y="-198.95" font-family="Helvetica,Arial,sans-serif" font-size="10.00">0.00383</text>
</g>
<!-- n12 -->
<g id="node14" class="node">
<title>n12</title>
<path fill="#f0f4fa" stroke="black" d="M237.45,-136.4C237.45,-136.4 88.65,-136.4 88.65,-136.4 82.65,-136.4 76.65,-130.4 76.65,-124.4 76.65,-124.4 76.65,-98 76.65,-98 76.65,-92 82.65,-86 88.65,-86 88.65,-86 237.45,-86 237.45,-86 243.45,-86 249.45,-92 249.45,-98 249.45,-98 249.45,-124.4 249.45,-124.4 249.45,-130.4 243.45,-136.4 237.45,-136.4"/>
<text xml:space="preserve" text-anchor="start" x="130.05" y="-116.75" font-family="Helvetica,Arial,sans-serif" font-weight="bold" font-size="11.00" fill="#333333">Maize drying</text>
<text xml:space="preserve" text-anchor="start" x="154.05" y="-107.65" font-family="Helvetica,Arial,sans-serif" font-size="9.00" fill="#888888">[CH]</text>
<text xml:space="preserve" text-anchor="start" x="109.42" y="-97.7" font-family="Helvetica,Arial,sans-serif" font-size="10.00" fill="#333333">0.094 kg CO2&#45;Eq (5.5%)</text>
</g>
<!-- n12&#45;&gt;n6 -->
<g id="edge13" class="edge">
<title>n12&#45;&gt;n6</title>
<path fill="none" stroke="#555555" d="M249.86,-129.44C315.84,-143.46 406.89,-162.82 474.8,-177.25"/>
<polygon fill="#555555" stroke="#555555" points="474.13,-179.61 481.49,-178.67 475.15,-174.82 474.13,-179.61"/>
<text xml:space="preserve" text-anchor="middle" x="372.35" y="-158.53" font-family="Helvetica,Arial,sans-serif" font-size="10.00">0.321</text>
</g>
<!-- n13 -->
<g id="node15" class="node">
<title>n13</title>
<path fill="#f0f4fa" stroke="black" d="M314.1,-50.4C314.1,-50.4 12,-50.4 12,-50.4 6,-50.4 0,-44.4 0,-38.4 0,-38.4 0,-12 0,-12 0,-6 6,0 12,0 12,0 314.1,0 314.1,0 320.1,0 326.1,-6 326.1,-12 326.1,-12 326.1,-38.4 326.1,-38.4 326.1,-44.4 320.1,-50.4 314.1,-50.4"/>
<text xml:space="preserve" text-anchor="start" x="10.8" y="-30.75" font-family="Helvetica,Arial,sans-serif" font-weight="bold" font-size="11.00" fill="#333333">Electricity, medium voltage,\nproduction ENTSO&#45;E, at grid</text>
<text xml:space="preserve" text-anchor="start" x="140.92" y="-21.65" font-family="Helvetica,Arial,sans-serif" font-size="9.00" fill="#888888">[ENTSO&#45;E]</text>
<text xml:space="preserve" text-anchor="start" x="106.8" y="-11.7" font-family="Helvetica,Arial,sans-serif" font-size="10.00" fill="#333333">0.274 kg CO2&#45;Eq (16.0%)</text>
</g>
<!-- n13&#45;&gt;n8 -->
<g id="edge14" class="edge">
<title>n13&#45;&gt;n8</title>
<path fill="none" stroke="#555555" d="M326.58,-25.2C354.05,-25.2 382.55,-25.2 409.93,-25.2"/>
<polygon fill="#555555" stroke="#555555" points="409.88,-27.65 416.88,-25.2 409.88,-22.75 409.88,-27.65"/>
<text xml:space="preserve" text-anchor="middle" x="372.35" y="-26.95" font-family="Helvetica,Arial,sans-serif" font-size="10.00">1</text>
</g>
</g>
</svg>
