<?xml version="1.0" encoding="UTF-8" standalone="no"?>
<!DOCTYPE svg PUBLIC "-//W3C//DTD SVG 1.1//EN"
 "http://www.w3.org/Graphics/SVG/1.1/DTD/svg11.dtd">
<!-- Generated by graphviz version 15.0.0 (20260523.1842)
 -->
<!-- Title: G Pages: 1 -->
<svg width="1682pt" height="659pt"
 viewBox="0.00 0.00 1682.00 659.00" xmlns="http://www.w3.org/2000/svg" xmlns:xlink="http://www.w3.org/1999/xlink">
<g id="graph0" class="graph" transform="scale(1 1) rotate(0) translate(28.8 630.2)">
<title>G</title>
<polygon fill="white" stroke="none" points="-28.8,28.8 -28.8,-630.2 1652.8,-630.2 1652.8,28.8 -28.8,28.8"/>
<text xml:space="preserve" text-anchor="middle" x="812" y="-585.05" font-family="Helvetica,Arial,sans-serif" font-size="13.00">Steel, converter, unalloyed, at plant [RER]</text>
<text xml:space="preserve" text-anchor="middle" x="812" y="-571.55" font-family="Helvetica,Arial,sans-serif" font-size="13.00">climate change (global warming potential (GWP100)) &#160;| &#160;Total: 2.5210 kg CO2&#45;Eq</text>
<!-- n_1 -->
<g id="node1" class="node">
<title>n_1</title>
<path fill="#7b4ea6" stroke="black" d="M1612,-351.4C1612,-351.4 1438.15,-351.4 1438.15,-351.4 1432.15,-351.4 1426.15,-345.4 1426.15,-339.4 1426.15,-339.4 1426.15,-313 1426.15,-313 1426.15,-307 1432.15,-301 1438.15,-301 1438.15,-301 1612,-301 1612,-301 1618,-301 1624,-307 1624,-313 1624,-313 1624,-339.4 1624,-339.4 1624,-345.4 1618,-351.4 1612,-351.4"/>
<text xml:space="preserve" text-anchor="start" x="1484.95" y="-332.25" font-family="Helvetica,Arial,sans-serif" font-weight="bold" font-size="11.00" fill="white">Functional Unit</text>
<text xml:space="preserve" text-anchor="start" x="1436.95" y="-322.2" font-family="Helvetica,Arial,sans-serif" font-size="10.00" fill="white">1 × Steel, converter, unalloyed, at\nplant</text>
<text xml:space="preserve" text-anchor="start" x="1486.45" y="-312.2" font-family="Helvetica,Arial,sans-serif" font-weight="bold" font-size="10.00" fill="white">2.521 kg CO2&#45;Eq</text>
</g>
<!-- n0 -->
<g id="node2" class="node">
<title>n0</title>
<path fill="#3a7ebf" stroke="black" d="M1350.9,-351.4C1350.9,-351.4 1162.8,-351.4 1162.8,-351.4 1156.8,-351.4 1150.8,-345.4 1150.8,-339.4 1150.8,-339.4 1150.8,-313 1150.8,-313 1150.8,-307 1156.8,-301 1162.8,-301 1162.8,-301 1350.9,-301 1350.9,-301 1356.9,-301 1362.9,-307 1362.9,-313 1362.9,-313 1362.9,-339.4 1362.9,-339.4 1362.9,-345.4 1356.9,-351.4 1350.9,-351.4"/>
<text xml:space="preserve" text-anchor="start" x="1161.6" y="-331.75" font-family="Helvetica,Arial,sans-serif" font-weight="bold" font-size="11.00" fill="white">Steel, converter, unalloyed,\nat plant</text>
<text xml:space="preserve" text-anchor="start" x="1244.85" y="-322.65" font-family="Helvetica,Arial,sans-serif" font-size="9.00" fill="#888888">[RER]</text>
<text xml:space="preserve" text-anchor="start" x="1197.97" y="-312.7" font-family="Helvetica,Arial,sans-serif" font-size="10.00" fill="white">2.521 kg CO2&#45;Eq (100.0%)</text>
</g>
<!-- n0&#45;&gt;n_1 -->
<g id="edge1" class="edge">
<title>n0&#45;&gt;n_1</title>
<path fill="none" stroke="#555555" d="M1363.07,-326.2C1380.97,-326.2 1399.57,-326.2 1417.5,-326.2"/>
<polygon fill="#555555" stroke="#555555" points="1417.17,-328.65 1424.17,-326.2 1417.17,-323.75 1417.17,-328.65"/>
<text xml:space="preserve" text-anchor="middle" x="1394.52" y="-327.95" font-family="Helvetica,Arial,sans-serif" font-size="10.00">1</text>
</g>
<!-- n1 -->
<g id="node3" class="node">
<title>n1</title>
<path fill="#f0f4fa" stroke="black" d="M1051.55,-437.4C1051.55,-437.4 791.45,-437.4 791.45,-437.4 785.45,-437.4 779.45,-431.4 779.45,-425.4 779.45,-425.4 779.45,-399 779.45,-399 779.45,-393 785.45,-387 791.45,-387 791.45,-387 1051.55,-387 1051.55,-387 1057.55,-387 1063.55,-393 1063.55,-399 1063.55,-399 1063.55,-425.4 1063.55,-425.4 1063.55,-431.4 1057.55,-437.4 1051.55,-437.4"/>
<text xml:space="preserve" text-anchor="start" x="790.25" y="-417.75" font-family="Helvetica,Arial,sans-serif" font-weight="bold" font-size="11.00" fill="#333333">Basic oxygen furnace gas,\nburned in power plant</text>
<text xml:space="preserve" text-anchor="start" x="909.5" y="-408.65" font-family="Helvetica,Arial,sans-serif" font-size="9.00" fill="#888888">[RER]</text>
<text xml:space="preserve" text-anchor="start" x="865.25" y="-398.7" font-family="Helvetica,Arial,sans-serif" font-size="10.00" fill="#333333">0.308 kg CO2&#45;Eq (12.2%)</text>
</g>
<!-- n1&#45;&gt;n0 -->
<g id="edge2" class="edge">
<title>n1&#45;&gt;n0</title>
<path fill="none" stroke="#555555" d="M1022.06,-386.51C1061.9,-376.24 1107.88,-364.37 1148.47,-353.9"/>
<polygon fill="#555555" stroke="#555555" points="1148.88,-356.33 1155.05,-352.21 1147.65,-351.58 1148.88,-356.33"/>
<text xml:space="preserve" text-anchor="middle" x="1107.17" y="-368.37" font-family="Helvetica,Arial,sans-serif" font-size="10.00">0.521</text>
</g>
<!-- n2 -->
<g id="node4" class="node">
<title>n2</title>
<path fill="#f0f4fa" stroke="black" d="M995.9,-351.4C995.9,-351.4 847.1,-351.4 847.1,-351.4 841.1,-351.4 835.1,-345.4 835.1,-339.4 835.1,-339.4 835.1,-313 835.1,-313 835.1,-307 841.1,-301 847.1,-301 847.1,-301 995.9,-301 995.9,-301 1001.9,-301 1007.9,-307 1007.9,-313 1007.9,-313 1007.9,-339.4 1007.9,-339.4 1007.9,-345.4 1001.9,-351.4 995.9,-351.4"/>
<text xml:space="preserve" text-anchor="start" x="878.37" y="-331.75" font-family="Helvetica,Arial,sans-serif" font-weight="bold" font-size="11.00" fill="#333333">Pig iron, at plant</text>
<text xml:space="preserve" text-anchor="start" x="909.5" y="-322.65" font-family="Helvetica,Arial,sans-serif" font-size="9.00" fill="#888888">[RER]</text>
<text xml:space="preserve" text-anchor="start" x="865.25" y="-312.7" font-family="Helvetica,Arial,sans-serif" font-size="10.00" fill="#333333">1.960 kg CO2&#45;Eq (77.7%)</text>
</g>
<!-- n2&#45;&gt;n0 -->
<g id="edge3" class="edge">
<title>n2&#45;&gt;n0</title>
<path fill="none" stroke="#555555" d="M1008.35,-326.2C1049.03,-326.2 1098.2,-326.2 1141.95,-326.2"/>
<polygon fill="#555555" stroke="#555555" points="1141.82,-328.65 1148.82,-326.2 1141.82,-323.75 1141.82,-328.65"/>
<text xml:space="preserve" text-anchor="middle" x="1107.17" y="-327.95" font-family="Helvetica,Arial,sans-serif" font-size="10.00">0.853</text>
</g>
<!-- n3 -->
<g id="node5" class="node">
<title>n3</title>
<path fill="#f0f4fa" stroke="black" d="M1015.55,-265.4C1015.55,-265.4 827.45,-265.4 827.45,-265.4 821.45,-265.4 815.45,-259.4 815.45,-253.4 815.45,-253.4 815.45,-227 815.45,-227 815.45,-221 821.45,-215 827.45,-215 827.45,-215 1015.55,-215 1015.55,-215 1021.55,-215 1027.55,-221 1027.55,-227 1027.55,-227 1027.55,-253.4 1027.55,-253.4 1027.55,-259.4 1021.55,-265.4 1015.55,-265.4"/>
<text xml:space="preserve" text-anchor="start" x="826.25" y="-245.75" font-family="Helvetica,Arial,sans-serif" font-weight="bold" font-size="11.00" fill="#333333">Quicklime, in pieces, loose,\nat plant</text>
<text xml:space="preserve" text-anchor="start" x="912.5" y="-236.65" font-family="Helvetica,Arial,sans-serif" font-size="9.00" fill="#888888">[CH]</text>
<text xml:space="preserve" text-anchor="start" x="867.87" y="-226.7" font-family="Helvetica,Arial,sans-serif" font-size="10.00" fill="#333333">0.057 kg CO2&#45;Eq (2.3%)</text>
</g>
<!-- n3&#45;&gt;n0 -->
<g id="edge4" class="edge">
<title>n3&#45;&gt;n0</title>
<path fill="none" stroke="#555555" d="M1022.06,-265.89C1061.9,-276.16 1107.88,-288.03 1148.47,-298.5"/>
<polygon fill="#555555" stroke="#555555" points="1147.65,-300.82 1155.05,-300.19 1148.88,-296.07 1147.65,-300.82"/>
<text xml:space="preserve" text-anchor="middle" x="1107.17" y="-292.65" font-family="Helvetica,Arial,sans-serif" font-size="10.00">0.0481</text>
</g>
<!-- n4 -->
<g id="node6" class="node">
<title>n4</title>
<path fill="#f0f4fa" stroke="black" d="M637.07,-566.4C637.07,-566.4 463.22,-566.4 463.22,-566.4 457.22,-566.4 451.22,-560.4 451.22,-554.4 451.22,-554.4 451.22,-528 451.22,-528 451.22,-522 457.22,-516 463.22,-516 463.22,-516 637.07,-516 637.07,-516 643.07,-516 649.07,-522 649.07,-528 649.07,-528 649.07,-554.4 649.07,-554.4 649.07,-560.4 643.07,-566.4 637.07,-566.4"/>
<text xml:space="preserve" text-anchor="start" x="462.02" y="-546.75" font-family="Helvetica,Arial,sans-serif" font-weight="bold" font-size="11.00" fill="#333333">Light fuel oil, at regional\nstorage</text>
<text xml:space="preserve" text-anchor="start" x="538.15" y="-537.65" font-family="Helvetica,Arial,sans-serif" font-size="9.00" fill="#888888">[RER]</text>
<text xml:space="preserve" text-anchor="start" x="496.52" y="-527.7" font-family="Helvetica,Arial,sans-serif" font-size="10.00" fill="#333333">0.026 kg CO2&#45;Eq (1.0%)</text>
</g>
<!-- n4&#45;&gt;n2 -->
<g id="edge5" class="edge">
<title>n4&#45;&gt;n2</title>
<path fill="none" stroke="#555555" d="M649.48,-520.27C664.57,-514.56 679.37,-507.33 692.2,-498.2 728.03,-472.69 726.28,-454.94 750.45,-418.2 764.36,-397.06 759.55,-384.84 779.45,-369.2 793.33,-358.29 809.96,-350.14 826.85,-344.05"/>
<polygon fill="#555555" stroke="#555555" points="827.36,-346.47 833.2,-341.89 825.78,-341.83 827.36,-346.47"/>
<text xml:space="preserve" text-anchor="middle" x="735.82" y="-471.35" font-family="Helvetica,Arial,sans-serif" font-size="10.00">0.0258</text>
</g>
<!-- n5 -->
<g id="node7" class="node">
<title>n5</title>
<path fill="#f0f4fa" stroke="black" d="M680.2,-480.4C680.2,-480.4 420.1,-480.4 420.1,-480.4 414.1,-480.4 408.1,-474.4 408.1,-468.4 408.1,-468.4 408.1,-442 408.1,-442 408.1,-436 414.1,-430 420.1,-430 420.1,-430 680.2,-430 680.2,-430 686.2,-430 692.2,-436 692.2,-442 692.2,-442 692.2,-468.4 692.2,-468.4 692.2,-474.4 686.2,-480.4 680.2,-480.4"/>
<text xml:space="preserve" text-anchor="start" x="418.9" y="-460.75" font-family="Helvetica,Arial,sans-serif" font-weight="bold" font-size="11.00" fill="#333333">Basic oxygen furnace gas,\nburned in power plant</text>
<text xml:space="preserve" text-anchor="start" x="538.15" y="-451.65" font-family="Helvetica,Arial,sans-serif" font-size="9.00" fill="#888888">[RER]</text>
<text xml:space="preserve" text-anchor="start" x="496.52" y="-441.7" font-family="Helvetica,Arial,sans-serif" font-size="10.00" fill="#333333">0.108 kg CO2&#45;Eq (4.3%)</text>
</g>
<!-- n5&#45;&gt;n2 -->
<g id="edge6" class="edge">
<title>n5&#45;&gt;n2</title>
<path fill="none" stroke="#555555" d="M642.95,-429.58C659.5,-424.29 676.49,-418.42 692.2,-412.2 732.4,-396.29 739.25,-385.11 779.45,-369.2 794.59,-363.21 810.91,-357.54 826.89,-352.4"/>
<polygon fill="#555555" stroke="#555555" points="827.33,-354.84 833.26,-350.38 825.85,-350.16 827.33,-354.84"/>
<text xml:space="preserve" text-anchor="middle" x="735.82" y="-399.82" font-family="Helvetica,Arial,sans-serif" font-size="10.00">0.183</text>
</g>
<!-- n6 -->
<g id="node8" class="node">
<title>n6</title>
<path fill="#f0f4fa" stroke="black" d="M658.45,-394.4C658.45,-394.4 441.85,-394.4 441.85,-394.4 435.85,-394.4 429.85,-388.4 429.85,-382.4 429.85,-382.4 429.85,-356 429.85,-356 429.85,-350 435.85,-344 441.85,-344 441.85,-344 658.45,-344 658.45,-344 664.45,-344 670.45,-350 670.45,-356 670.45,-356 670.45,-382.4 670.45,-382.4 670.45,-388.4 664.45,-394.4 658.45,-394.4"/>
<text xml:space="preserve" text-anchor="start" x="440.65" y="-374.75" font-family="Helvetica,Arial,sans-serif" font-weight="bold" font-size="11.00" fill="#333333">Blast furnace gas, burned in\npower plant</text>
<text xml:space="preserve" text-anchor="start" x="538.15" y="-365.65" font-family="Helvetica,Arial,sans-serif" font-size="9.00" fill="#888888">[RER]</text>
<text xml:space="preserve" text-anchor="start" x="496.52" y="-355.7" font-family="Helvetica,Arial,sans-serif" font-size="10.00" fill="#333333">0.185 kg CO2&#45;Eq (7.3%)</text>
</g>
<!-- n6&#45;&gt;n2 -->
<g id="edge7" class="edge">
<title>n6&#45;&gt;n2</title>
<path fill="none" stroke="#555555" d="M670.81,-355.27C721.2,-349.4 778.99,-342.67 826.27,-337.17"/>
<polygon fill="#555555" stroke="#555555" points="826.5,-339.61 833.17,-336.37 825.93,-334.74 826.5,-339.61"/>
<text xml:space="preserve" text-anchor="middle" x="735.82" y="-350.74" font-family="Helvetica,Arial,sans-serif" font-size="10.00">1.32</text>
</g>
<!-- n7 -->
<g id="node9" class="node">
<title>n7</title>
<path fill="#f0f4fa" stroke="black" d="M640.45,-308.4C640.45,-308.4 459.85,-308.4 459.85,-308.4 453.85,-308.4 447.85,-302.4 447.85,-296.4 447.85,-296.4 447.85,-270 447.85,-270 447.85,-264 453.85,-258 459.85,-258 459.85,-258 640.45,-258 640.45,-258 646.45,-258 652.45,-264 652.45,-270 652.45,-270 652.45,-296.4 652.45,-296.4 652.45,-302.4 646.45,-308.4 640.45,-308.4"/>
<text xml:space="preserve" text-anchor="start" x="458.65" y="-288.75" font-family="Helvetica,Arial,sans-serif" font-weight="bold" font-size="11.00" fill="#333333">Hard coal mix, at regional\nstorage</text>
<text xml:space="preserve" text-anchor="start" x="535.52" y="-279.65" font-family="Helvetica,Arial,sans-serif" font-size="9.00" fill="#888888">[UCTE]</text>
<text xml:space="preserve" text-anchor="start" x="496.52" y="-269.7" font-family="Helvetica,Arial,sans-serif" font-size="10.00" fill="#333333">0.059 kg CO2&#45;Eq (2.3%)</text>
</g>
<!-- n7&#45;&gt;n2 -->
<g id="edge8" class="edge">
<title>n7&#45;&gt;n2</title>
<path fill="none" stroke="#555555" d="M652.57,-295.01C706.79,-301.32 773.13,-309.04 826.23,-315.23"/>
<polygon fill="#555555" stroke="#555555" points="825.9,-317.65 833.13,-316.03 826.46,-312.79 825.9,-317.65"/>
<text xml:space="preserve" text-anchor="middle" x="735.82" y="-307.74" font-family="Helvetica,Arial,sans-serif" font-size="10.00">0.139</text>
</g>
<!-- n8 -->
<g id="node10" class="node">
<title>n8</title>
<path fill="#f0f4fa" stroke="black" d="M624.55,-222.4C624.55,-222.4 475.75,-222.4 475.75,-222.4 469.75,-222.4 463.75,-216.4 463.75,-210.4 463.75,-210.4 463.75,-184 463.75,-184 463.75,-178 469.75,-172 475.75,-172 475.75,-172 624.55,-172 624.55,-172 630.55,-172 636.55,-178 636.55,-184 636.55,-184 636.55,-210.4 636.55,-210.4 636.55,-216.4 630.55,-222.4 624.55,-222.4"/>
<text xml:space="preserve" text-anchor="start" x="498.77" y="-202.75" font-family="Helvetica,Arial,sans-serif" font-weight="bold" font-size="11.00" fill="#333333">Sinter, iron, at plant</text>
<text xml:space="preserve" text-anchor="start" x="538.15" y="-193.65" font-family="Helvetica,Arial,sans-serif" font-size="9.00" fill="#888888">[RER]</text>
<text xml:space="preserve" text-anchor="start" x="493.9" y="-183.7" font-family="Helvetica,Arial,sans-serif" font-size="10.00" fill="#333333">0.636 kg CO2&#45;Eq (25.2%)</text>
</g>
<!-- n8&#45;&gt;n2 -->
<g id="edge9" class="edge">
<title>n8&#45;&gt;n2</title>
<path fill="none" stroke="#555555" d="M636.95,-220.93C655.37,-226.69 674.59,-233.23 692.2,-240.2 732.4,-256.11 739.25,-267.29 779.45,-283.2 794.59,-289.19 810.91,-294.86 826.89,-300"/>
<polygon fill="#555555" stroke="#555555" points="825.85,-302.24 833.26,-302.02 827.33,-297.56 825.85,-302.24"/>
<text xml:space="preserve" text-anchor="middle" x="735.82" y="-270.82" font-family="Helvetica,Arial,sans-serif" font-size="10.00">0.935</text>
</g>
<!-- n9 -->
<g id="node11" class="node">
<title>n9</title>
<path fill="#f0f4fa" stroke="black" d="M624.55,-93.4C624.55,-93.4 475.75,-93.4 475.75,-93.4 469.75,-93.4 463.75,-87.4 463.75,-81.4 463.75,-81.4 463.75,-55 463.75,-55 463.75,-49 469.75,-43 475.75,-43 475.75,-43 624.55,-43 624.55,-43 630.55,-43 636.55,-49 636.55,-55 636.55,-55 636.55,-81.4 636.55,-81.4 636.55,-87.4 630.55,-93.4 624.55,-93.4"/>
<text xml:space="preserve" text-anchor="start" x="496.52" y="-73.75" font-family="Helvetica,Arial,sans-serif" font-weight="bold" font-size="11.00" fill="#333333">Pellets, iron, at plant</text>
<text xml:space="preserve" text-anchor="start" x="538.15" y="-64.65" font-family="Helvetica,Arial,sans-serif" font-size="9.00" fill="#888888">[RER]</text>
<text xml:space="preserve" text-anchor="start" x="496.52" y="-54.7" font-family="Helvetica,Arial,sans-serif" font-size="10.00" fill="#333333">0.107 kg CO2&#45;Eq (4.2%)</text>
</g>
<!-- n9&#45;&gt;n2 -->
<g id="edge10" class="edge">
<title>n9&#45;&gt;n2</title>
<path fill="none" stroke="#555555" d="M603.77,-93.83C631.84,-109.02 665.92,-130.02 692.2,-154.2 724.5,-183.92 726.34,-197.27 750.45,-233.95 764.4,-255.18 759.5,-267.48 779.45,-283.2 793.31,-294.12 809.94,-302.28 826.84,-308.37"/>
<polygon fill="#555555" stroke="#555555" points="825.76,-310.59 833.18,-310.54 827.34,-305.96 825.76,-310.59"/>
<text xml:space="preserve" text-anchor="middle" x="735.82" y="-235.7" font-family="Helvetica,Arial,sans-serif" font-size="10.00">0.307</text>
</g>
<!-- n10 -->
<g id="node12" class="node">
<title>n10</title>
<path fill="#f0f4fa" stroke="black" d="M258.97,-394.4C258.97,-394.4 67.12,-394.4 67.12,-394.4 61.12,-394.4 55.12,-388.4 55.12,-382.4 55.12,-382.4 55.12,-356 55.12,-356 55.12,-350 61.12,-344 67.12,-344 67.12,-344 258.97,-344 258.97,-344 264.97,-344 270.97,-350 270.97,-356 270.97,-356 270.97,-382.4 270.97,-382.4 270.97,-388.4 264.97,-394.4 258.97,-394.4"/>
<text xml:space="preserve" text-anchor="start" x="65.92" y="-374.75" font-family="Helvetica,Arial,sans-serif" font-weight="bold" font-size="11.00" fill="#333333">Transport, transoceanic\nfreight ship</text>
<text xml:space="preserve" text-anchor="start" x="151.05" y="-365.65" font-family="Helvetica,Arial,sans-serif" font-size="9.00" fill="#888888">[OCE]</text>
<text xml:space="preserve" text-anchor="start" x="109.42" y="-355.7" font-family="Helvetica,Arial,sans-serif" font-size="10.00" fill="#333333">0.027 kg CO2&#45;Eq (1.1%)</text>
</g>
<!-- n10&#45;&gt;n8 -->
<g id="edge11" class="edge">
<title>n10&#45;&gt;n8</title>
<path fill="none" stroke="#555555" d="M271.17,-349.73C290.22,-343.81 309.32,-336.13 326.1,-326.2 371.55,-299.31 363.15,-267.92 408.1,-240.2 422.52,-231.31 438.91,-224.14 455.29,-218.4"/>
<polygon fill="#555555" stroke="#555555" points="456.03,-220.73 461.88,-216.18 454.47,-216.09 456.03,-220.73"/>
<text xml:space="preserve" text-anchor="middle" x="367.1" y="-302.75" font-family="Helvetica,Arial,sans-serif" font-size="10.00">3.86</text>
</g>
<!-- n11 -->
<g id="node13" class="node">
<title>n11</title>
<path fill="#f0f4fa" stroke="black" d="M314.1,-308.4C314.1,-308.4 12,-308.4 12,-308.4 6,-308.4 0,-302.4 0,-296.4 0,-296.4 0,-270 0,-270 0,-264 6,-258 12,-258 12,-258 314.1,-258 314.1,-258 320.1,-258 326.1,-264 326.1,-270 326.1,-270 326.1,-296.4 326.1,-296.4 326.1,-302.4 320.1,-308.4 314.1,-308.4"/>
<text xml:space="preserve" text-anchor="start" x="10.8" y="-288.75" font-family="Helvetica,Arial,sans-serif" font-weight="bold" font-size="11.00" fill="#333333">Electricity, medium voltage,\nproduction ENTSO&#45;E, at grid</text>
<text xml:space="preserve" text-anchor="start" x="140.92" y="-279.65" font-family="Helvetica,Arial,sans-serif" font-size="9.00" fill="#888888">[ENTSO&#45;E]</text>
<text xml:space="preserve" text-anchor="start" x="109.42" y="-269.7" font-family="Helvetica,Arial,sans-serif" font-size="10.00" fill="#333333">0.047 kg CO2&#45;Eq (1.9%)</text>
</g>
<!-- n11&#45;&gt;n8 -->
<g id="edge12" class="edge">
<title>n11&#45;&gt;n8</title>
<path fill="none" stroke="#555555" d="M279.07,-257.51C335.36,-244.94 402.25,-230 455.39,-218.14"/>
<polygon fill="#555555" stroke="#555555" points="455.68,-220.58 461.98,-216.67 454.62,-215.8 455.68,-220.58"/>
<text xml:space="preserve" text-anchor="middle" x="367.1" y="-241.95" font-family="Helvetica,Arial,sans-serif" font-size="10.00">0.168</text>
</g>
<!-- n12 -->
<g id="node14" class="node">
<title>n12</title>
<path fill="#f0f4fa" stroke="black" d="M237.45,-222.4C237.45,-222.4 88.65,-222.4 88.65,-222.4 82.65,-222.4 76.65,-216.4 76.65,-210.4 76.65,-210.4 76.65,-184 76.65,-184 76.65,-178 82.65,-172 88.65,-172 88.65,-172 237.45,-172 237.45,-172 243.45,-172 249.45,-178 249.45,-184 249.45,-184 249.45,-210.4 249.45,-210.4 249.45,-216.4 243.45,-222.4 237.45,-222.4"/>
<text xml:space="preserve" text-anchor="start" x="101.55" y="-202.75" font-family="Helvetica,Arial,sans-serif" font-weight="bold" font-size="11.00" fill="#333333">Hard coal coke, at plant</text>
<text xml:space="preserve" text-anchor="start" x="151.05" y="-193.65" font-family="Helvetica,Arial,sans-serif" font-size="9.00" fill="#888888">[RER]</text>
<text xml:space="preserve" text-anchor="start" x="109.42" y="-183.7" font-family="Helvetica,Arial,sans-serif" font-size="10.00" fill="#333333">0.042 kg CO2&#45;Eq (1.7%)</text>
</g>
<!-- n12&#45;&gt;n8 -->
<g id="edge13" class="edge">
<title>n12&#45;&gt;n8</title>
<path fill="none" stroke="#555555" d="M249.52,-197.2C310.38,-197.2 392.17,-197.2 454.92,-197.2"/>
<polygon fill="#555555" stroke="#555555" points="454.74,-199.65 461.74,-197.2 454.74,-194.75 454.74,-199.65"/>
<text xml:space="preserve" text-anchor="middle" x="367.1" y="-198.95" font-family="Helvetica,Arial,sans-serif" font-size="10.00">1.74</text>
</g>
<!-- n13 -->
<g id="node15" class="node">
<title>n13</title>
<path fill="#f0f4fa" stroke="black" d="M237.45,-136.4C237.45,-136.4 88.65,-136.4 88.65,-136.4 82.65,-136.4 76.65,-130.4 76.65,-124.4 76.65,-124.4 76.65,-98 76.65,-98 76.65,-92 82.65,-86 88.65,-86 88.65,-86 237.45,-86 237.45,-86 243.45,-86 249.45,-92 249.45,-98 249.45,-98 249.45,-124.4 249.45,-124.4 249.45,-130.4 243.45,-136.4 237.45,-136.4"/>
<text xml:space="preserve" text-anchor="start" x="109.42" y="-116.75" font-family="Helvetica,Arial,sans-serif" font-weight="bold" font-size="11.00" fill="#333333">Pellets, iron, at plant</text>
<text xml:space="preserve" text-anchor="start" x="151.05" y="-107.65" font-family="Helvetica,Arial,sans-serif" font-size="9.00" fill="#888888">[RER]</text>
<text xml:space="preserve" text-anchor="start" x="109.42" y="-97.7" font-family="Helvetica,Arial,sans-serif" font-size="10.00" fill="#333333">0.039 kg CO2&#45;Eq (1.6%)</text>
</g>
<!-- n13&#45;&gt;n8 -->
<g id="edge14" class="edge">
<title>n13&#45;&gt;n8</title>
<path fill="none" stroke="#555555" d="M249.52,-130.29C310.5,-143.91 392.51,-162.22 455.31,-176.24"/>
<polygon fill="#555555" stroke="#555555" points="454.41,-178.55 461.78,-177.69 455.48,-173.77 454.41,-178.55"/>
<text xml:space="preserve" text-anchor="middle" x="367.1" y="-158.53" font-family="Helvetica,Arial,sans-serif" font-size="10.00">0.113</text>
</g>
<!-- n14 -->
<g id="node16" class="node">
<title>n14</title>
<path fill="#f0f4fa" stroke="black" d="M293.1,-50.4C293.1,-50.4 33,-50.4 33,-50.4 27,-50.4 21,-44.4 21,-38.4 21,-38.4 21,-12 21,-12 21,-6 27,0 33,0 33,0 293.1,0 293.1,0 299.1,0 305.1,-6 305.1,-12 305.1,-12 305.1,-38.4 305.1,-38.4 305.1,-44.4 299.1,-50.4 293.1,-50.4"/>
<text xml:space="preserve" text-anchor="start" x="31.8" y="-30.75" font-family="Helvetica,Arial,sans-serif" font-weight="bold" font-size="11.00" fill="#333333">Basic oxygen furnace gas,\nburned in power plant</text>
<text xml:space="preserve" text-anchor="start" x="151.05" y="-21.65" font-family="Helvetica,Arial,sans-serif" font-size="9.00" fill="#888888">[RER]</text>
<text xml:space="preserve" text-anchor="start" x="109.42" y="-11.7" font-family="Helvetica,Arial,sans-serif" font-size="10.00" fill="#333333">0.056 kg CO2&#45;Eq (2.2%)</text>
</g>
<!-- n14&#45;&gt;n9 -->
<g id="edge15" class="edge">
<title>n14&#45;&gt;n9</title>
<path fill="none" stroke="#555555" d="M305.53,-41C355.43,-46.57 410.25,-52.69 455.23,-57.71"/>
<polygon fill="#555555" stroke="#555555" points="454.78,-60.13 462.01,-58.47 455.32,-55.26 454.78,-60.13"/>
<text xml:space="preserve" text-anchor="middle" x="367.1" y="-49.74" font-family="Helvetica,Arial,sans-serif" font-size="10.00">0.094</text>
</g>
</g>
</svg>
